<svg width="128" height="128" viewBox="0 0 128 128" fill="none" xmlns="http://www.w3.org/2000/svg">
<rect x="10.5" y="58.5" width="107" height="48" fill="white" stroke="black"/>
<rect x="10.5" y="56.5" width="107" height="48" fill="white" stroke="black"/>
<rect x="10.5" y="54.5" width="107" height="48" fill="white" stroke="black"/>
<rect x="10.5" y="52.5" width="107" height="48" fill="white" stroke="black"/>
<mask id="mask0_1150_62264" style="mask-type:alpha" maskUnits="userSpaceOnUse" x="14" y="56" width="100" height="41">
<path fill-rule="evenodd" clip-rule="evenodd" d="M114 68V85C107.373 85 102 90.3726 102 97H26C26 90.3726 20.6274 85 14 85V68C20.6274 68 26 62.6274 26 56H64C52.9543 56 44 64.9543 44 76C44 87.0457 52.9543 96 64 96C75.0457 96 84 87.0457 84 76C84 64.9543 75.0457 56 64 56H102C102 62.6274 107.373 68 114 68Z" fill="black"/>
</mask>
<g mask="url(#mask0_1150_62264)">
<rect x="14" y="56" width="159" height="96" fill="black"/>
</g>
<mask id="path-7-inside-1_1150_62264" fill="white">
<path fill-rule="evenodd" clip-rule="evenodd" d="M83.5 72C90.9558 72 97 65.9558 97 58.5C97 58.3326 96.997 58.1659 96.9909 58H97V54H96.2318C94.3786 48.7566 89.378 45 83.5 45C77.622 45 72.6214 48.7566 70.7682 54H70V58H70.0091C70.003 58.1659 70 58.3326 70 58.5C70 65.9558 76.0442 72 83.5 72Z"/>
</mask>
<path fill-rule="evenodd" clip-rule="evenodd" d="M83.5 72C90.9558 72 97 65.9558 97 58.5C97 58.3326 96.997 58.1659 96.9909 58H97V54H96.2318C94.3786 48.7566 89.378 45 83.5 45C77.622 45 72.6214 48.7566 70.7682 54H70V58H70.0091C70.003 58.1659 70 58.3326 70 58.5C70 65.9558 76.0442 72 83.5 72Z" fill="white"/>
<path d="M96.9909 58V57H95.9538L95.9916 58.0364L96.9909 58ZM97 58V59H98V58H97ZM97 54H98V53H97V54ZM96.2318 54L95.289 54.3332L95.5246 55H96.2318V54ZM70.7682 54V55H71.4754L71.711 54.3332L70.7682 54ZM70 54V53H69V54H70ZM70 58H69V59H70V58ZM70.0091 58L71.0084 58.0364L71.0462 57H70.0091V58ZM96 58.5C96 65.4036 90.4036 71 83.5 71V73C91.5081 73 98 66.5081 98 58.5H96ZM95.9916 58.0364C95.9972 58.1902 96 58.3447 96 58.5H98C98 58.3205 97.9967 58.1417 97.9902 57.9636L95.9916 58.0364ZM97 57H96.9909V59H97V57ZM96 54V58H98V54H96ZM96.2318 55H97V53H96.2318V55ZM83.5 46C88.941 46 93.5725 49.4769 95.289 54.3332L97.1747 53.6668C95.1846 48.0363 89.815 44 83.5 44V46ZM71.711 54.3332C73.4275 49.4769 78.059 46 83.5 46V44C77.185 44 71.8154 48.0363 69.8253 53.6668L71.711 54.3332ZM70 55H70.7682V53H70V55ZM71 58V54H69V58H71ZM70.0091 57H70V59H70.0091V57ZM71 58.5C71 58.3447 71.0028 58.1902 71.0084 58.0364L69.0097 57.9636C69.0033 58.1417 69 58.3205 69 58.5H71ZM83.5 71C76.5964 71 71 65.4036 71 58.5H69C69 66.5081 75.4919 73 83.5 73V71Z" fill="black" mask="url(#path-7-inside-1_1150_62264)"/>
<circle cx="83.5" cy="54.5" r="13" fill="white" stroke="black"/>
<mask id="path-10-inside-2_1150_62264" fill="white">
<path d="M94 54.5C94 52.8058 93.59 51.1367 92.8051 49.6353C92.0201 48.1339 90.8835 46.8447 89.4923 45.8778L88.916 46.7069C90.1735 47.5808 91.2008 48.7461 91.9103 50.1031C92.6197 51.4601 92.9903 52.9687 92.9903 54.5H94Z"/>
</mask>
<path d="M94 54.5C94 52.8058 93.59 51.1367 92.8051 49.6353C92.0201 48.1339 90.8835 46.8447 89.4923 45.8778L88.916 46.7069C90.1735 47.5808 91.2008 48.7461 91.9103 50.1031C92.6197 51.4601 92.9903 52.9687 92.9903 54.5H94Z" fill="white" stroke="black" stroke-width="2" mask="url(#path-10-inside-2_1150_62264)"/>
<mask id="path-11-inside-3_1150_62264" fill="white">
<path d="M92.8696 59.2392C93.2694 58.4489 93.5675 57.6112 93.757 56.746L92.7706 56.53C92.5994 57.312 92.3299 58.0691 91.9686 58.7834L92.8696 59.2392Z"/>
</mask>
<path d="M92.8696 59.2392C93.2694 58.4489 93.5675 57.6112 93.757 56.746L92.7706 56.53C92.5994 57.312 92.3299 58.0691 91.9686 58.7834L92.8696 59.2392Z" fill="white" stroke="black" stroke-width="2" mask="url(#path-11-inside-3_1150_62264)"/>
<path d="M84 67V71" stroke="black"/>
<path d="M95 60V64" stroke="black"/>
<path d="M72 60V64" stroke="black"/>
<path d="M93 63V67" stroke="black"/>
<path d="M74 63V67" stroke="black"/>
<path d="M89 66V70" stroke="black"/>
<path d="M78 66V70" stroke="black"/>
<mask id="path-19-inside-4_1150_62264" fill="white">
<path fill-rule="evenodd" clip-rule="evenodd" d="M83.5 68C90.9558 68 97 61.9558 97 54.5C97 54.3326 96.997 54.1659 96.9909 54H97V50H96.2318C94.3786 44.7566 89.378 41 83.5 41C77.622 41 72.6214 44.7566 70.7682 50H70V54H70.0091C70.003 54.1659 70 54.3326 70 54.5C70 61.9558 76.0442 68 83.5 68Z"/>
</mask>
<path fill-rule="evenodd" clip-rule="evenodd" d="M83.5 68C90.9558 68 97 61.9558 97 54.5C97 54.3326 96.997 54.1659 96.9909 54H97V50H96.2318C94.3786 44.7566 89.378 41 83.5 41C77.622 41 72.6214 44.7566 70.7682 50H70V54H70.0091C70.003 54.1659 70 54.3326 70 54.5C70 61.9558 76.0442 68 83.5 68Z" fill="white"/>
<path d="M96.9909 54V53H95.9538L95.9916 54.0364L96.9909 54ZM97 54V55H98V54H97ZM97 50H98V49H97V50ZM96.2318 50L95.289 50.3332L95.5246 51H96.2318V50ZM70.7682 50V51H71.4754L71.711 50.3332L70.7682 50ZM70 50V49H69V50H70ZM70 54H69V55H70V54ZM70.0091 54L71.0084 54.0364L71.0462 53H70.0091V54ZM96 54.5C96 61.4036 90.4036 67 83.5 67V69C91.5081 69 98 62.5081 98 54.5H96ZM95.9916 54.0364C95.9972 54.1902 96 54.3447 96 54.5H98C98 54.3205 97.9967 54.1417 97.9902 53.9636L95.9916 54.0364ZM97 53H96.9909V55H97V53ZM96 50V54H98V50H96ZM96.2318 51H97V49H96.2318V51ZM83.5 42C88.941 42 93.5725 45.4769 95.289 50.3332L97.1747 49.6668C95.1846 44.0363 89.815 40 83.5 40V42ZM71.711 50.3332C73.4275 45.4769 78.059 42 83.5 42V40C77.185 40 71.8154 44.0363 69.8253 49.6668L71.711 50.3332ZM70 51H70.7682V49H70V51ZM71 54V50H69V54H71ZM70.0091 53H70V55H70.0091V53ZM71 54.5C71 54.3447 71.0028 54.1902 71.0084 54.0364L69.0097 53.9636C69.0033 54.1417 69 54.3205 69 54.5H71ZM83.5 67C76.5964 67 71 61.4036 71 54.5H69C69 62.5081 75.4919 69 83.5 69V67Z" fill="black" mask="url(#path-19-inside-4_1150_62264)"/>
<circle cx="83.5" cy="50.5" r="13" fill="white" stroke="black"/>
<mask id="path-22-inside-5_1150_62264" fill="white">
<path d="M94 50.5C94 48.8058 93.59 47.1367 92.8051 45.6353C92.0201 44.1339 90.8835 42.8447 89.4923 41.8778L88.916 42.7069C90.1735 43.5808 91.2008 44.7461 91.9103 46.1031C92.6197 47.4601 92.9903 48.9687 92.9903 50.5H94Z"/>
</mask>
<path d="M94 50.5C94 48.8058 93.59 47.1367 92.8051 45.6353C92.0201 44.1339 90.8835 42.8447 89.4923 41.8778L88.916 42.7069C90.1735 43.5808 91.2008 44.7461 91.9103 46.1031C92.6197 47.4601 92.9903 48.9687 92.9903 50.5H94Z" fill="white" stroke="black" stroke-width="2" mask="url(#path-22-inside-5_1150_62264)"/>
<mask id="path-23-inside-6_1150_62264" fill="white">
<path d="M92.8696 55.2392C93.2694 54.4489 93.5675 53.6112 93.757 52.746L92.7706 52.53C92.5994 53.312 92.3299 54.0691 91.9686 54.7834L92.8696 55.2392Z"/>
</mask>
<path d="M92.8696 55.2392C93.2694 54.4489 93.5675 53.6112 93.757 52.746L92.7706 52.53C92.5994 53.312 92.3299 54.0691 91.9686 54.7834L92.8696 55.2392Z" fill="white" stroke="black" stroke-width="2" mask="url(#path-23-inside-6_1150_62264)"/>
<path d="M84 63V67" stroke="black"/>
<path d="M95 56V60" stroke="black"/>
<path d="M72 56V60" stroke="black"/>
<path d="M93 59V63" stroke="black"/>
<path d="M74 59V63" stroke="black"/>
<path d="M89 62V66" stroke="black"/>
<path d="M78 62V66" stroke="black"/>
<mask id="path-31-inside-7_1150_62264" fill="white">
<path fill-rule="evenodd" clip-rule="evenodd" d="M83.5 64C90.9558 64 97 57.9558 97 50.5C97 50.3326 96.997 50.1659 96.9909 50H97V46H96.2318C94.3786 40.7566 89.378 37 83.5 37C77.622 37 72.6214 40.7566 70.7682 46H70V50H70.0091C70.003 50.1659 70 50.3326 70 50.5C70 57.9558 76.0442 64 83.5 64Z"/>
</mask>
<path fill-rule="evenodd" clip-rule="evenodd" d="M83.5 64C90.9558 64 97 57.9558 97 50.5C97 50.3326 96.997 50.1659 96.9909 50H97V46H96.2318C94.3786 40.7566 89.378 37 83.5 37C77.622 37 72.6214 40.7566 70.7682 46H70V50H70.0091C70.003 50.1659 70 50.3326 70 50.5C70 57.9558 76.0442 64 83.5 64Z" fill="white"/>
<path d="M96.9909 50V49H95.9538L95.9916 50.0364L96.9909 50ZM97 50V51H98V50H97ZM97 46H98V45H97V46ZM96.2318 46L95.289 46.3332L95.5246 47H96.2318V46ZM70.7682 46V47H71.4754L71.711 46.3332L70.7682 46ZM70 46V45H69V46H70ZM70 50H69V51H70V50ZM70.0091 50L71.0084 50.0364L71.0462 49H70.0091V50ZM96 50.5C96 57.4036 90.4036 63 83.5 63V65C91.5081 65 98 58.5081 98 50.5H96ZM95.9916 50.0364C95.9972 50.1902 96 50.3447 96 50.5H98C98 50.3205 97.9967 50.1417 97.9902 49.9636L95.9916 50.0364ZM97 49H96.9909V51H97V49ZM96 46V50H98V46H96ZM96.2318 47H97V45H96.2318V47ZM83.5 38C88.941 38 93.5725 41.4769 95.289 46.3332L97.1747 45.6668C95.1846 40.0363 89.815 36 83.5 36V38ZM71.711 46.3332C73.4275 41.4769 78.059 38 83.5 38V36C77.185 36 71.8154 40.0363 69.8253 45.6668L71.711 46.3332ZM70 47H70.7682V45H70V47ZM71 50V46H69V50H71ZM70.0091 49H70V51H70.0091V49ZM71 50.5C71 50.3447 71.0028 50.1902 71.0084 50.0364L69.0097 49.9636C69.0033 50.1417 69 50.3205 69 50.5H71ZM83.5 63C76.5964 63 71 57.4036 71 50.5H69C69 58.5081 75.4919 65 83.5 65V63Z" fill="black" mask="url(#path-31-inside-7_1150_62264)"/>
<circle cx="83.5" cy="46.5" r="13" fill="white" stroke="black"/>
<mask id="path-34-inside-8_1150_62264" fill="white">
<path d="M94 46.5C94 44.8058 93.59 43.1367 92.8051 41.6353C92.0201 40.1339 90.8835 38.8447 89.4923 37.8778L88.916 38.7069C90.1735 39.5808 91.2008 40.7461 91.9103 42.1031C92.6197 43.4601 92.9903 44.9687 92.9903 46.5H94Z"/>
</mask>
<path d="M94 46.5C94 44.8058 93.59 43.1367 92.8051 41.6353C92.0201 40.1339 90.8835 38.8447 89.4923 37.8778L88.916 38.7069C90.1735 39.5808 91.2008 40.7461 91.9103 42.1031C92.6197 43.4601 92.9903 44.9687 92.9903 46.5H94Z" fill="white" stroke="black" stroke-width="2" mask="url(#path-34-inside-8_1150_62264)"/>
<mask id="path-35-inside-9_1150_62264" fill="white">
<path d="M92.8696 51.2392C93.2694 50.4489 93.5675 49.6112 93.757 48.746L92.7706 48.53C92.5994 49.312 92.3299 50.0691 91.9686 50.7834L92.8696 51.2392Z"/>
</mask>
<path d="M92.8696 51.2392C93.2694 50.4489 93.5675 49.6112 93.757 48.746L92.7706 48.53C92.5994 49.312 92.3299 50.0691 91.9686 50.7834L92.8696 51.2392Z" fill="white" stroke="black" stroke-width="2" mask="url(#path-35-inside-9_1150_62264)"/>
<path d="M84 59V63" stroke="black"/>
<path d="M95 52V56" stroke="black"/>
<path d="M72 52V56" stroke="black"/>
<path d="M93 55V59" stroke="black"/>
<path d="M74 55V59" stroke="black"/>
<path d="M89 58V62" stroke="black"/>
<path d="M78 58V62" stroke="black"/>
<mask id="path-43-inside-10_1150_62264" fill="white">
<path fill-rule="evenodd" clip-rule="evenodd" d="M83.5 60C90.9558 60 97 53.9558 97 46.5C97 46.3326 96.997 46.1659 96.9909 46H97V42H96.2318C94.3786 36.7566 89.378 33 83.5 33C77.622 33 72.6214 36.7566 70.7682 42H70V46H70.0091C70.003 46.1659 70 46.3326 70 46.5C70 53.9558 76.0442 60 83.5 60Z"/>
</mask>
<path fill-rule="evenodd" clip-rule="evenodd" d="M83.5 60C90.9558 60 97 53.9558 97 46.5C97 46.3326 96.997 46.1659 96.9909 46H97V42H96.2318C94.3786 36.7566 89.378 33 83.5 33C77.622 33 72.6214 36.7566 70.7682 42H70V46H70.0091C70.003 46.1659 70 46.3326 70 46.5C70 53.9558 76.0442 60 83.5 60Z" fill="white"/>
<path d="M96.9909 46V45H95.9538L95.9916 46.0364L96.9909 46ZM97 46V47H98V46H97ZM97 42H98V41H97V42ZM96.2318 42L95.289 42.3332L95.5246 43H96.2318V42ZM70.7682 42V43H71.4754L71.711 42.3332L70.7682 42ZM70 42V41H69V42H70ZM70 46H69V47H70V46ZM70.0091 46L71.0084 46.0364L71.0462 45H70.0091V46ZM96 46.5C96 53.4036 90.4036 59 83.5 59V61C91.5081 61 98 54.5081 98 46.5H96ZM95.9916 46.0364C95.9972 46.1902 96 46.3447 96 46.5H98C98 46.3205 97.9967 46.1417 97.9902 45.9636L95.9916 46.0364ZM97 45H96.9909V47H97V45ZM96 42V46H98V42H96ZM96.2318 43H97V41H96.2318V43ZM83.5 34C88.941 34 93.5725 37.4769 95.289 42.3332L97.1747 41.6668C95.1846 36.0363 89.815 32 83.5 32V34ZM71.711 42.3332C73.4275 37.4769 78.059 34 83.5 34V32C77.185 32 71.8154 36.0363 69.8253 41.6668L71.711 42.3332ZM70 43H70.7682V41H70V43ZM71 46V42H69V46H71ZM70.0091 45H70V47H70.0091V45ZM71 46.5C71 46.3447 71.0028 46.1902 71.0084 46.0364L69.0097 45.9636C69.0033 46.1417 69 46.3205 69 46.5H71ZM83.5 59C76.5964 59 71 53.4036 71 46.5H69C69 54.5081 75.4919 61 83.5 61V59Z" fill="black" mask="url(#path-43-inside-10_1150_62264)"/>
<circle cx="83.5" cy="42.5" r="13" fill="white" stroke="black"/>
<mask id="path-46-inside-11_1150_62264" fill="white">
<path d="M94 42.5C94 40.8058 93.59 39.1367 92.8051 37.6353C92.0201 36.1339 90.8835 34.8447 89.4923 33.8778L88.916 34.7069C90.1735 35.5808 91.2008 36.7461 91.9103 38.1031C92.6197 39.4601 92.9903 40.9687 92.9903 42.5H94Z"/>
</mask>
<path d="M94 42.5C94 40.8058 93.59 39.1367 92.8051 37.6353C92.0201 36.1339 90.8835 34.8447 89.4923 33.8778L88.916 34.7069C90.1735 35.5808 91.2008 36.7461 91.9103 38.1031C92.6197 39.4601 92.9903 40.9687 92.9903 42.5H94Z" fill="white" stroke="black" stroke-width="2" mask="url(#path-46-inside-11_1150_62264)"/>
<mask id="path-47-inside-12_1150_62264" fill="white">
<path d="M92.8696 47.2392C93.2694 46.4489 93.5675 45.6112 93.757 44.746L92.7706 44.53C92.5994 45.312 92.3299 46.0691 91.9686 46.7834L92.8696 47.2392Z"/>
</mask>
<path d="M92.8696 47.2392C93.2694 46.4489 93.5675 45.6112 93.757 44.746L92.7706 44.53C92.5994 45.312 92.3299 46.0691 91.9686 46.7834L92.8696 47.2392Z" fill="white" stroke="black" stroke-width="2" mask="url(#path-47-inside-12_1150_62264)"/>
<path d="M84 55V59" stroke="black"/>
<path d="M95 48V52" stroke="black"/>
<path d="M72 48V52" stroke="black"/>
<path d="M93 51V55" stroke="black"/>
<path d="M74 51V55" stroke="black"/>
<path d="M89 54V58" stroke="black"/>
<path d="M78 54V58" stroke="black"/>
<mask id="path-55-inside-13_1150_62264" fill="white">
<path fill-rule="evenodd" clip-rule="evenodd" d="M83.5 56C90.9558 56 97 49.9558 97 42.5C97 42.3326 96.997 42.1659 96.9909 42H97V38H96.2318C94.3786 32.7566 89.378 29 83.5 29C77.622 29 72.6214 32.7566 70.7682 38H70V42H70.0091C70.003 42.1659 70 42.3326 70 42.5C70 49.9558 76.0442 56 83.5 56Z"/>
</mask>
<path fill-rule="evenodd" clip-rule="evenodd" d="M83.5 56C90.9558 56 97 49.9558 97 42.5C97 42.3326 96.997 42.1659 96.9909 42H97V38H96.2318C94.3786 32.7566 89.378 29 83.5 29C77.622 29 72.6214 32.7566 70.7682 38H70V42H70.0091C70.003 42.1659 70 42.3326 70 42.5C70 49.9558 76.0442 56 83.5 56Z" fill="white"/>
<path d="M96.9909 42V41H95.9538L95.9916 42.0364L96.9909 42ZM97 42V43H98V42H97ZM97 38H98V37H97V38ZM96.2318 38L95.289 38.3332L95.5246 39H96.2318V38ZM70.7682 38V39H71.4754L71.711 38.3332L70.7682 38ZM70 38V37H69V38H70ZM70 42H69V43H70V42ZM70.0091 42L71.0084 42.0364L71.0462 41H70.0091V42ZM96 42.5C96 49.4036 90.4036 55 83.5 55V57C91.5081 57 98 50.5081 98 42.5H96ZM95.9916 42.0364C95.9972 42.1902 96 42.3447 96 42.5H98C98 42.3205 97.9967 42.1417 97.9902 41.9636L95.9916 42.0364ZM97 41H96.9909V43H97V41ZM96 38V42H98V38H96ZM96.2318 39H97V37H96.2318V39ZM83.5 30C88.941 30 93.5725 33.4769 95.289 38.3332L97.1747 37.6668C95.1846 32.0363 89.815 28 83.5 28V30ZM71.711 38.3332C73.4275 33.4769 78.059 30 83.5 30V28C77.185 28 71.8154 32.0363 69.8253 37.6668L71.711 38.3332ZM70 39H70.7682V37H70V39ZM71 42V38H69V42H71ZM70.0091 41H70V43H70.0091V41ZM71 42.5C71 42.3447 71.0028 42.1902 71.0084 42.0364L69.0097 41.9636C69.0033 42.1417 69 42.3205 69 42.5H71ZM83.5 55C76.5964 55 71 49.4036 71 42.5H69C69 50.5081 75.4919 57 83.5 57V55Z" fill="black" mask="url(#path-55-inside-13_1150_62264)"/>
<circle cx="83.5" cy="38.5" r="13" fill="white" stroke="black"/>
<mask id="path-58-inside-14_1150_62264" fill="white">
<path d="M94 38.5C94 36.8058 93.59 35.1367 92.8051 33.6353C92.0201 32.1339 90.8835 30.8447 89.4923 29.8778L88.916 30.7069C90.1735 31.5808 91.2008 32.7461 91.9103 34.1031C92.6197 35.4601 92.9903 36.9687 92.9903 38.5H94Z"/>
</mask>
<path d="M94 38.5C94 36.8058 93.59 35.1367 92.8051 33.6353C92.0201 32.1339 90.8835 30.8447 89.4923 29.8778L88.916 30.7069C90.1735 31.5808 91.2008 32.7461 91.9103 34.1031C92.6197 35.4601 92.9903 36.9687 92.9903 38.5H94Z" fill="white" stroke="black" stroke-width="2" mask="url(#path-58-inside-14_1150_62264)"/>
<mask id="path-59-inside-15_1150_62264" fill="white">
<path d="M92.8696 43.2392C93.2694 42.4489 93.5675 41.6112 93.757 40.746L92.7706 40.53C92.5994 41.312 92.3299 42.0691 91.9686 42.7834L92.8696 43.2392Z"/>
</mask>
<path d="M92.8696 43.2392C93.2694 42.4489 93.5675 41.6112 93.757 40.746L92.7706 40.53C92.5994 41.312 92.3299 42.0691 91.9686 42.7834L92.8696 43.2392Z" fill="white" stroke="black" stroke-width="2" mask="url(#path-59-inside-15_1150_62264)"/>
<path d="M84 51V55" stroke="black"/>
<path d="M95 44V48" stroke="black"/>
<path d="M72 44V48" stroke="black"/>
<path d="M93 47V51" stroke="black"/>
<path d="M74 47V51" stroke="black"/>
<path d="M89 50V54" stroke="black"/>
<path d="M78 50V54" stroke="black"/>
<mask id="path-67-inside-16_1150_62264" fill="white">
<path fill-rule="evenodd" clip-rule="evenodd" d="M83.5 52C90.9558 52 97 45.9558 97 38.5C97 38.3326 96.997 38.1659 96.9909 38H97V34H96.2318C94.3786 28.7566 89.378 25 83.5 25C77.622 25 72.6214 28.7566 70.7682 34H70V38H70.0091C70.003 38.1659 70 38.3326 70 38.5C70 45.9558 76.0442 52 83.5 52Z"/>
</mask>
<path fill-rule="evenodd" clip-rule="evenodd" d="M83.5 52C90.9558 52 97 45.9558 97 38.5C97 38.3326 96.997 38.1659 96.9909 38H97V34H96.2318C94.3786 28.7566 89.378 25 83.5 25C77.622 25 72.6214 28.7566 70.7682 34H70V38H70.0091C70.003 38.1659 70 38.3326 70 38.5C70 45.9558 76.0442 52 83.5 52Z" fill="white"/>
<path d="M96.9909 38V37H95.9538L95.9916 38.0364L96.9909 38ZM97 38V39H98V38H97ZM97 34H98V33H97V34ZM96.2318 34L95.289 34.3332L95.5246 35H96.2318V34ZM70.7682 34V35H71.4754L71.711 34.3332L70.7682 34ZM70 34V33H69V34H70ZM70 38H69V39H70V38ZM70.0091 38L71.0084 38.0364L71.0462 37H70.0091V38ZM96 38.5C96 45.4036 90.4036 51 83.5 51V53C91.5081 53 98 46.5081 98 38.5H96ZM95.9916 38.0364C95.9972 38.1902 96 38.3447 96 38.5H98C98 38.3205 97.9967 38.1417 97.9902 37.9636L95.9916 38.0364ZM97 37H96.9909V39H97V37ZM96 34V38H98V34H96ZM96.2318 35H97V33H96.2318V35ZM83.5 26C88.941 26 93.5725 29.4769 95.289 34.3332L97.1747 33.6668C95.1846 28.0363 89.815 24 83.5 24V26ZM71.711 34.3332C73.4275 29.4769 78.059 26 83.5 26V24C77.185 24 71.8154 28.0363 69.8253 33.6668L71.711 34.3332ZM70 35H70.7682V33H70V35ZM71 38V34H69V38H71ZM70.0091 37H70V39H70.0091V37ZM71 38.5C71 38.3447 71.0028 38.1902 71.0084 38.0364L69.0097 37.9636C69.0033 38.1417 69 38.3205 69 38.5H71ZM83.5 51C76.5964 51 71 45.4036 71 38.5H69C69 46.5081 75.4919 53 83.5 53V51Z" fill="black" mask="url(#path-67-inside-16_1150_62264)"/>
<circle cx="83.5" cy="34.5" r="13" fill="white" stroke="black"/>
<mask id="path-70-inside-17_1150_62264" fill="white">
<path d="M94 34.5C94 32.8058 93.59 31.1367 92.8051 29.6353C92.0201 28.1339 90.8835 26.8447 89.4923 25.8778L88.916 26.7069C90.1735 27.5808 91.2008 28.7461 91.9103 30.1031C92.6197 31.4601 92.9903 32.9687 92.9903 34.5H94Z"/>
</mask>
<path d="M94 34.5C94 32.8058 93.59 31.1367 92.8051 29.6353C92.0201 28.1339 90.8835 26.8447 89.4923 25.8778L88.916 26.7069C90.1735 27.5808 91.2008 28.7461 91.9103 30.1031C92.6197 31.4601 92.9903 32.9687 92.9903 34.5H94Z" fill="white" stroke="black" stroke-width="2" mask="url(#path-70-inside-17_1150_62264)"/>
<mask id="path-71-inside-18_1150_62264" fill="white">
<path d="M92.8696 39.2392C93.2694 38.4489 93.5675 37.6112 93.757 36.746L92.7706 36.53C92.5994 37.312 92.3299 38.0691 91.9686 38.7834L92.8696 39.2392Z"/>
</mask>
<path d="M92.8696 39.2392C93.2694 38.4489 93.5675 37.6112 93.757 36.746L92.7706 36.53C92.5994 37.312 92.3299 38.0691 91.9686 38.7834L92.8696 39.2392Z" fill="white" stroke="black" stroke-width="2" mask="url(#path-71-inside-18_1150_62264)"/>
<path d="M84 47V51" stroke="black"/>
<path d="M95 40V44" stroke="black"/>
<path d="M72 40V44" stroke="black"/>
<path d="M93 43V47" stroke="black"/>
<path d="M74 43V47" stroke="black"/>
<path d="M89 46V50" stroke="black"/>
<path d="M78 46V50" stroke="black"/>
<mask id="path-79-inside-19_1150_62264" fill="white">
<path fill-rule="evenodd" clip-rule="evenodd" d="M83.5 48C90.9558 48 97 41.9558 97 34.5C97 34.3326 96.997 34.1659 96.9909 34H97V30H96.2318C94.3786 24.7566 89.378 21 83.5 21C77.622 21 72.6214 24.7566 70.7682 30H70V34H70.0091C70.003 34.1659 70 34.3326 70 34.5C70 41.9558 76.0442 48 83.5 48Z"/>
</mask>
<path fill-rule="evenodd" clip-rule="evenodd" d="M83.5 48C90.9558 48 97 41.9558 97 34.5C97 34.3326 96.997 34.1659 96.9909 34H97V30H96.2318C94.3786 24.7566 89.378 21 83.5 21C77.622 21 72.6214 24.7566 70.7682 30H70V34H70.0091C70.003 34.1659 70 34.3326 70 34.5C70 41.9558 76.0442 48 83.5 48Z" fill="white"/>
<path d="M96.9909 34V33H95.9538L95.9916 34.0364L96.9909 34ZM97 34V35H98V34H97ZM97 30H98V29H97V30ZM96.2318 30L95.289 30.3332L95.5246 31H96.2318V30ZM70.7682 30V31H71.4754L71.711 30.3332L70.7682 30ZM70 30V29H69V30H70ZM70 34H69V35H70V34ZM70.0091 34L71.0084 34.0364L71.0462 33H70.0091V34ZM96 34.5C96 41.4036 90.4036 47 83.5 47V49C91.5081 49 98 42.5081 98 34.5H96ZM95.9916 34.0364C95.9972 34.1902 96 34.3447 96 34.5H98C98 34.3205 97.9967 34.1417 97.9902 33.9636L95.9916 34.0364ZM97 33H96.9909V35H97V33ZM96 30V34H98V30H96ZM96.2318 31H97V29H96.2318V31ZM83.5 22C88.941 22 93.5725 25.4769 95.289 30.3332L97.1747 29.6668C95.1846 24.0363 89.815 20 83.5 20V22ZM71.711 30.3332C73.4275 25.4769 78.059 22 83.5 22V20C77.185 20 71.8154 24.0363 69.8253 29.6668L71.711 30.3332ZM70 31H70.7682V29H70V31ZM71 34V30H69V34H71ZM70.0091 33H70V35H70.0091V33ZM71 34.5C71 34.3447 71.0028 34.1902 71.0084 34.0364L69.0097 33.9636C69.0033 34.1417 69 34.3205 69 34.5H71ZM83.5 47C76.5964 47 71 41.4036 71 34.5H69C69 42.5081 75.4919 49 83.5 49V47Z" fill="black" mask="url(#path-79-inside-19_1150_62264)"/>
<circle cx="83.5" cy="30.5" r="13" fill="white" stroke="black"/>
<mask id="path-82-inside-20_1150_62264" fill="white">
<path d="M94 30.5C94 28.8058 93.59 27.1367 92.8051 25.6353C92.0201 24.1339 90.8835 22.8447 89.4923 21.8778L88.916 22.7069C90.1735 23.5808 91.2008 24.7461 91.9103 26.1031C92.6197 27.4601 92.9903 28.9687 92.9903 30.5H94Z"/>
</mask>
<path d="M94 30.5C94 28.8058 93.59 27.1367 92.8051 25.6353C92.0201 24.1339 90.8835 22.8447 89.4923 21.8778L88.916 22.7069C90.1735 23.5808 91.2008 24.7461 91.9103 26.1031C92.6197 27.4601 92.9903 28.9687 92.9903 30.5H94Z" fill="white" stroke="black" stroke-width="2" mask="url(#path-82-inside-20_1150_62264)"/>
<mask id="path-83-inside-21_1150_62264" fill="white">
<path d="M92.8696 35.2392C93.2694 34.4489 93.5675 33.6112 93.757 32.746L92.7706 32.53C92.5994 33.312 92.3299 34.0691 91.9686 34.7834L92.8696 35.2392Z"/>
</mask>
<path d="M92.8696 35.2392C93.2694 34.4489 93.5675 33.6112 93.757 32.746L92.7706 32.53C92.5994 33.312 92.3299 34.0691 91.9686 34.7834L92.8696 35.2392Z" fill="white" stroke="black" stroke-width="2" mask="url(#path-83-inside-21_1150_62264)"/>
<path d="M84 43V47" stroke="black"/>
<path d="M95 36V40" stroke="black"/>
<path d="M72 36V40" stroke="black"/>
<path d="M93 39V43" stroke="black"/>
<path d="M74 39V43" stroke="black"/>
<path d="M89 42V46" stroke="black"/>
<path d="M78 42V46" stroke="black"/>
<mask id="path-91-inside-22_1150_62264" fill="white">
<path fill-rule="evenodd" clip-rule="evenodd" d="M83.5 44C90.9558 44 97 37.9558 97 30.5C97 30.3326 96.997 30.1659 96.9909 30H97V26H96.2318C94.3786 20.7566 89.378 17 83.5 17C77.622 17 72.6214 20.7566 70.7682 26H70V30H70.0091C70.003 30.1659 70 30.3326 70 30.5C70 37.9558 76.0442 44 83.5 44Z"/>
</mask>
<path fill-rule="evenodd" clip-rule="evenodd" d="M83.5 44C90.9558 44 97 37.9558 97 30.5C97 30.3326 96.997 30.1659 96.9909 30H97V26H96.2318C94.3786 20.7566 89.378 17 83.5 17C77.622 17 72.6214 20.7566 70.7682 26H70V30H70.0091C70.003 30.1659 70 30.3326 70 30.5C70 37.9558 76.0442 44 83.5 44Z" fill="white"/>
<path d="M96.9909 30V29H95.9538L95.9916 30.0364L96.9909 30ZM97 30V31H98V30H97ZM97 26H98V25H97V26ZM96.2318 26L95.289 26.3332L95.5246 27H96.2318V26ZM70.7682 26V27H71.4754L71.711 26.3332L70.7682 26ZM70 26V25H69V26H70ZM70 30H69V31H70V30ZM70.0091 30L71.0084 30.0364L71.0462 29H70.0091V30ZM96 30.5C96 37.4036 90.4036 43 83.5 43V45C91.5081 45 98 38.5081 98 30.5H96ZM95.9916 30.0364C95.9972 30.1902 96 30.3447 96 30.5H98C98 30.3205 97.9967 30.1417 97.9902 29.9636L95.9916 30.0364ZM97 29H96.9909V31H97V29ZM96 26V30H98V26H96ZM96.2318 27H97V25H96.2318V27ZM83.5 18C88.941 18 93.5725 21.4769 95.289 26.3332L97.1747 25.6668C95.1846 20.0363 89.815 16 83.5 16V18ZM71.711 26.3332C73.4275 21.4769 78.059 18 83.5 18V16C77.185 16 71.8154 20.0363 69.8253 25.6668L71.711 26.3332ZM70 27H70.7682V25H70V27ZM71 30V26H69V30H71ZM70.0091 29H70V31H70.0091V29ZM71 30.5C71 30.3447 71.0028 30.1902 71.0084 30.0364L69.0097 29.9636C69.0033 30.1417 69 30.3205 69 30.5H71ZM83.5 43C76.5964 43 71 37.4036 71 30.5H69C69 38.5081 75.4919 45 83.5 45V43Z" fill="black" mask="url(#path-91-inside-22_1150_62264)"/>
<circle cx="83.5" cy="26.5" r="13" fill="white" stroke="black"/>
<mask id="path-94-inside-23_1150_62264" fill="white">
<path d="M94 26.5C94 24.8058 93.59 23.1367 92.8051 21.6353C92.0201 20.1339 90.8835 18.8447 89.4923 17.8778L88.916 18.7069C90.1735 19.5808 91.2008 20.7461 91.9103 22.1031C92.6197 23.4601 92.9903 24.9687 92.9903 26.5H94Z"/>
</mask>
<path d="M94 26.5C94 24.8058 93.59 23.1367 92.8051 21.6353C92.0201 20.1339 90.8835 18.8447 89.4923 17.8778L88.916 18.7069C90.1735 19.5808 91.2008 20.7461 91.9103 22.1031C92.6197 23.4601 92.9903 24.9687 92.9903 26.5H94Z" fill="white" stroke="black" stroke-width="2" mask="url(#path-94-inside-23_1150_62264)"/>
<mask id="path-95-inside-24_1150_62264" fill="white">
<path d="M92.8696 31.2392C93.2694 30.4489 93.5675 29.6112 93.757 28.746L92.7706 28.53C92.5994 29.312 92.3299 30.0691 91.9686 30.7834L92.8696 31.2392Z"/>
</mask>
<path d="M92.8696 31.2392C93.2694 30.4489 93.5675 29.6112 93.757 28.746L92.7706 28.53C92.5994 29.312 92.3299 30.0691 91.9686 30.7834L92.8696 31.2392Z" fill="white" stroke="black" stroke-width="2" mask="url(#path-95-inside-24_1150_62264)"/>
<path d="M84 39V43" stroke="black"/>
<path d="M95 32V36" stroke="black"/>
<path d="M72 32V36" stroke="black"/>
<path d="M93 35V39" stroke="black"/>
<path d="M74 35V39" stroke="black"/>
<path d="M89 38V42" stroke="black"/>
<path d="M78 38V42" stroke="black"/>
<mask id="path-103-inside-25_1150_62264" fill="white">
<path fill-rule="evenodd" clip-rule="evenodd" d="M43.5 72C50.9558 72 57 65.9558 57 58.5C57 58.3326 56.997 58.1659 56.9909 58H57V54H56.2318C54.3786 48.7566 49.378 45 43.5 45C37.622 45 32.6214 48.7566 30.7682 54H30V58H30.0091C30.003 58.1659 30 58.3326 30 58.5C30 65.9558 36.0442 72 43.5 72Z"/>
</mask>
<path fill-rule="evenodd" clip-rule="evenodd" d="M43.5 72C50.9558 72 57 65.9558 57 58.5C57 58.3326 56.997 58.1659 56.9909 58H57V54H56.2318C54.3786 48.7566 49.378 45 43.5 45C37.622 45 32.6214 48.7566 30.7682 54H30V58H30.0091C30.003 58.1659 30 58.3326 30 58.5C30 65.9558 36.0442 72 43.5 72Z" fill="white"/>
<path d="M56.9909 58V57H55.9538L55.9916 58.0364L56.9909 58ZM57 58V59H58V58H57ZM57 54H58V53H57V54ZM56.2318 54L55.289 54.3332L55.5246 55H56.2318V54ZM30.7682 54V55H31.4754L31.711 54.3332L30.7682 54ZM30 54V53H29V54H30ZM30 58H29V59H30V58ZM30.0091 58L31.0084 58.0364L31.0462 57H30.0091V58ZM56 58.5C56 65.4036 50.4036 71 43.5 71V73C51.5081 73 58 66.5081 58 58.5H56ZM55.9916 58.0364C55.9972 58.1902 56 58.3447 56 58.5H58C58 58.3205 57.9967 58.1417 57.9902 57.9636L55.9916 58.0364ZM57 57H56.9909V59H57V57ZM56 54V58H58V54H56ZM56.2318 55H57V53H56.2318V55ZM43.5 46C48.941 46 53.5725 49.4769 55.289 54.3332L57.1747 53.6668C55.1846 48.0363 49.815 44 43.5 44V46ZM31.711 54.3332C33.4275 49.4769 38.059 46 43.5 46V44C37.185 44 31.8154 48.0363 29.8253 53.6668L31.711 54.3332ZM30 55H30.7682V53H30V55ZM31 58V54H29V58H31ZM30.0091 57H30V59H30.0091V57ZM31 58.5C31 58.3447 31.0028 58.1902 31.0084 58.0364L29.0097 57.9636C29.0033 58.1417 29 58.3205 29 58.5H31ZM43.5 71C36.5964 71 31 65.4036 31 58.5H29C29 66.5081 35.4919 73 43.5 73V71Z" fill="black" mask="url(#path-103-inside-25_1150_62264)"/>
<circle cx="43.5" cy="54.5" r="13" fill="white" stroke="black"/>
<mask id="path-106-inside-26_1150_62264" fill="white">
<path d="M54 54.5C54 52.8058 53.59 51.1367 52.8051 49.6353C52.0201 48.1339 50.8835 46.8447 49.4923 45.8778L48.916 46.7069C50.1735 47.5808 51.2008 48.7461 51.9103 50.1031C52.6197 51.4601 52.9903 52.9687 52.9903 54.5H54Z"/>
</mask>
<path d="M54 54.5C54 52.8058 53.59 51.1367 52.8051 49.6353C52.0201 48.1339 50.8835 46.8447 49.4923 45.8778L48.916 46.7069C50.1735 47.5808 51.2008 48.7461 51.9103 50.1031C52.6197 51.4601 52.9903 52.9687 52.9903 54.5H54Z" fill="white" stroke="black" stroke-width="2" mask="url(#path-106-inside-26_1150_62264)"/>
<mask id="path-107-inside-27_1150_62264" fill="white">
<path d="M52.8696 59.2392C53.2694 58.4489 53.5675 57.6112 53.757 56.746L52.7706 56.53C52.5994 57.312 52.3299 58.0691 51.9686 58.7834L52.8696 59.2392Z"/>
</mask>
<path d="M52.8696 59.2392C53.2694 58.4489 53.5675 57.6112 53.757 56.746L52.7706 56.53C52.5994 57.312 52.3299 58.0691 51.9686 58.7834L52.8696 59.2392Z" fill="white" stroke="black" stroke-width="2" mask="url(#path-107-inside-27_1150_62264)"/>
<path d="M44 67V71" stroke="black"/>
<path d="M55 60V64" stroke="black"/>
<path d="M32 60V64" stroke="black"/>
<path d="M53 63V67" stroke="black"/>
<path d="M34 63V67" stroke="black"/>
<path d="M49 66V70" stroke="black"/>
<path d="M38 66V70" stroke="black"/>
<mask id="path-115-inside-28_1150_62264" fill="white">
<path fill-rule="evenodd" clip-rule="evenodd" d="M43.5 68C50.9558 68 57 61.9558 57 54.5C57 54.3326 56.997 54.1659 56.9909 54H57V50H56.2318C54.3786 44.7566 49.378 41 43.5 41C37.622 41 32.6214 44.7566 30.7682 50H30V54H30.0091C30.003 54.1659 30 54.3326 30 54.5C30 61.9558 36.0442 68 43.5 68Z"/>
</mask>
<path fill-rule="evenodd" clip-rule="evenodd" d="M43.5 68C50.9558 68 57 61.9558 57 54.5C57 54.3326 56.997 54.1659 56.9909 54H57V50H56.2318C54.3786 44.7566 49.378 41 43.5 41C37.622 41 32.6214 44.7566 30.7682 50H30V54H30.0091C30.003 54.1659 30 54.3326 30 54.5C30 61.9558 36.0442 68 43.5 68Z" fill="white"/>
<path d="M56.9909 54V53H55.9538L55.9916 54.0364L56.9909 54ZM57 54V55H58V54H57ZM57 50H58V49H57V50ZM56.2318 50L55.289 50.3332L55.5246 51H56.2318V50ZM30.7682 50V51H31.4754L31.711 50.3332L30.7682 50ZM30 50V49H29V50H30ZM30 54H29V55H30V54ZM30.0091 54L31.0084 54.0364L31.0462 53H30.0091V54ZM56 54.5C56 61.4036 50.4036 67 43.5 67V69C51.5081 69 58 62.5081 58 54.5H56ZM55.9916 54.0364C55.9972 54.1902 56 54.3447 56 54.5H58C58 54.3205 57.9967 54.1417 57.9902 53.9636L55.9916 54.0364ZM57 53H56.9909V55H57V53ZM56 50V54H58V50H56ZM56.2318 51H57V49H56.2318V51ZM43.5 42C48.941 42 53.5725 45.4769 55.289 50.3332L57.1747 49.6668C55.1846 44.0363 49.815 40 43.5 40V42ZM31.711 50.3332C33.4275 45.4769 38.059 42 43.5 42V40C37.185 40 31.8154 44.0363 29.8253 49.6668L31.711 50.3332ZM30 51H30.7682V49H30V51ZM31 54V50H29V54H31ZM30.0091 53H30V55H30.0091V53ZM31 54.5C31 54.3447 31.0028 54.1902 31.0084 54.0364L29.0097 53.9636C29.0033 54.1417 29 54.3205 29 54.5H31ZM43.5 67C36.5964 67 31 61.4036 31 54.5H29C29 62.5081 35.4919 69 43.5 69V67Z" fill="black" mask="url(#path-115-inside-28_1150_62264)"/>
<circle cx="43.5" cy="50.5" r="13" fill="white" stroke="black"/>
<mask id="path-118-inside-29_1150_62264" fill="white">
<path d="M54 50.5C54 48.8058 53.59 47.1367 52.8051 45.6353C52.0201 44.1339 50.8835 42.8447 49.4923 41.8778L48.916 42.7069C50.1735 43.5808 51.2008 44.7461 51.9103 46.1031C52.6197 47.4601 52.9903 48.9687 52.9903 50.5H54Z"/>
</mask>
<path d="M54 50.5C54 48.8058 53.59 47.1367 52.8051 45.6353C52.0201 44.1339 50.8835 42.8447 49.4923 41.8778L48.916 42.7069C50.1735 43.5808 51.2008 44.7461 51.9103 46.1031C52.6197 47.4601 52.9903 48.9687 52.9903 50.5H54Z" fill="white" stroke="black" stroke-width="2" mask="url(#path-118-inside-29_1150_62264)"/>
<mask id="path-119-inside-30_1150_62264" fill="white">
<path d="M52.8696 55.2392C53.2694 54.4489 53.5675 53.6112 53.757 52.746L52.7706 52.53C52.5994 53.312 52.3299 54.0691 51.9686 54.7834L52.8696 55.2392Z"/>
</mask>
<path d="M52.8696 55.2392C53.2694 54.4489 53.5675 53.6112 53.757 52.746L52.7706 52.53C52.5994 53.312 52.3299 54.0691 51.9686 54.7834L52.8696 55.2392Z" fill="white" stroke="black" stroke-width="2" mask="url(#path-119-inside-30_1150_62264)"/>
<path d="M44 63V67" stroke="black"/>
<path d="M55 56V60" stroke="black"/>
<path d="M32 56V60" stroke="black"/>
<path d="M53 59V63" stroke="black"/>
<path d="M34 59V63" stroke="black"/>
<path d="M49 62V66" stroke="black"/>
<path d="M38 62V66" stroke="black"/>
<mask id="path-127-inside-31_1150_62264" fill="white">
<path fill-rule="evenodd" clip-rule="evenodd" d="M43.5 64C50.9558 64 57 57.9558 57 50.5C57 50.3326 56.997 50.1659 56.9909 50H57V46H56.2318C54.3786 40.7566 49.378 37 43.5 37C37.622 37 32.6214 40.7566 30.7682 46H30V50H30.0091C30.003 50.1659 30 50.3326 30 50.5C30 57.9558 36.0442 64 43.5 64Z"/>
</mask>
<path fill-rule="evenodd" clip-rule="evenodd" d="M43.5 64C50.9558 64 57 57.9558 57 50.5C57 50.3326 56.997 50.1659 56.9909 50H57V46H56.2318C54.3786 40.7566 49.378 37 43.5 37C37.622 37 32.6214 40.7566 30.7682 46H30V50H30.0091C30.003 50.1659 30 50.3326 30 50.5C30 57.9558 36.0442 64 43.5 64Z" fill="white"/>
<path d="M56.9909 50V49H55.9538L55.9916 50.0364L56.9909 50ZM57 50V51H58V50H57ZM57 46H58V45H57V46ZM56.2318 46L55.289 46.3332L55.5246 47H56.2318V46ZM30.7682 46V47H31.4754L31.711 46.3332L30.7682 46ZM30 46V45H29V46H30ZM30 50H29V51H30V50ZM30.0091 50L31.0084 50.0364L31.0462 49H30.0091V50ZM56 50.5C56 57.4036 50.4036 63 43.5 63V65C51.5081 65 58 58.5081 58 50.5H56ZM55.9916 50.0364C55.9972 50.1902 56 50.3447 56 50.5H58C58 50.3205 57.9967 50.1417 57.9902 49.9636L55.9916 50.0364ZM57 49H56.9909V51H57V49ZM56 46V50H58V46H56ZM56.2318 47H57V45H56.2318V47ZM43.5 38C48.941 38 53.5725 41.4769 55.289 46.3332L57.1747 45.6668C55.1846 40.0363 49.815 36 43.5 36V38ZM31.711 46.3332C33.4275 41.4769 38.059 38 43.5 38V36C37.185 36 31.8154 40.0363 29.8253 45.6668L31.711 46.3332ZM30 47H30.7682V45H30V47ZM31 50V46H29V50H31ZM30.0091 49H30V51H30.0091V49ZM31 50.5C31 50.3447 31.0028 50.1902 31.0084 50.0364L29.0097 49.9636C29.0033 50.1417 29 50.3205 29 50.5H31ZM43.5 63C36.5964 63 31 57.4036 31 50.5H29C29 58.5081 35.4919 65 43.5 65V63Z" fill="black" mask="url(#path-127-inside-31_1150_62264)"/>
<circle cx="43.5" cy="46.5" r="13" fill="white" stroke="black"/>
<mask id="path-130-inside-32_1150_62264" fill="white">
<path d="M54 46.5C54 44.8058 53.59 43.1367 52.8051 41.6353C52.0201 40.1339 50.8835 38.8447 49.4923 37.8778L48.916 38.7069C50.1735 39.5808 51.2008 40.7461 51.9103 42.1031C52.6197 43.4601 52.9903 44.9687 52.9903 46.5H54Z"/>
</mask>
<path d="M54 46.5C54 44.8058 53.59 43.1367 52.8051 41.6353C52.0201 40.1339 50.8835 38.8447 49.4923 37.8778L48.916 38.7069C50.1735 39.5808 51.2008 40.7461 51.9103 42.1031C52.6197 43.4601 52.9903 44.9687 52.9903 46.5H54Z" fill="white" stroke="black" stroke-width="2" mask="url(#path-130-inside-32_1150_62264)"/>
<mask id="path-131-inside-33_1150_62264" fill="white">
<path d="M52.8696 51.2392C53.2694 50.4489 53.5675 49.6112 53.757 48.746L52.7706 48.53C52.5994 49.312 52.3299 50.0691 51.9686 50.7834L52.8696 51.2392Z"/>
</mask>
<path d="M52.8696 51.2392C53.2694 50.4489 53.5675 49.6112 53.757 48.746L52.7706 48.53C52.5994 49.312 52.3299 50.0691 51.9686 50.7834L52.8696 51.2392Z" fill="white" stroke="black" stroke-width="2" mask="url(#path-131-inside-33_1150_62264)"/>
<path d="M44 59V63" stroke="black"/>
<path d="M55 52V56" stroke="black"/>
<path d="M32 52V56" stroke="black"/>
<path d="M53 55V59" stroke="black"/>
<path d="M34 55V59" stroke="black"/>
<path d="M49 58V62" stroke="black"/>
<path d="M38 58V62" stroke="black"/>
<mask id="path-139-inside-34_1150_62264" fill="white">
<path fill-rule="evenodd" clip-rule="evenodd" d="M43.5 60C50.9558 60 57 53.9558 57 46.5C57 46.3326 56.997 46.1659 56.9909 46H57V42H56.2318C54.3786 36.7566 49.378 33 43.5 33C37.622 33 32.6214 36.7566 30.7682 42H30V46H30.0091C30.003 46.1659 30 46.3326 30 46.5C30 53.9558 36.0442 60 43.5 60Z"/>
</mask>
<path fill-rule="evenodd" clip-rule="evenodd" d="M43.5 60C50.9558 60 57 53.9558 57 46.5C57 46.3326 56.997 46.1659 56.9909 46H57V42H56.2318C54.3786 36.7566 49.378 33 43.5 33C37.622 33 32.6214 36.7566 30.7682 42H30V46H30.0091C30.003 46.1659 30 46.3326 30 46.5C30 53.9558 36.0442 60 43.5 60Z" fill="white"/>
<path d="M56.9909 46V45H55.9538L55.9916 46.0364L56.9909 46ZM57 46V47H58V46H57ZM57 42H58V41H57V42ZM56.2318 42L55.289 42.3332L55.5246 43H56.2318V42ZM30.7682 42V43H31.4754L31.711 42.3332L30.7682 42ZM30 42V41H29V42H30ZM30 46H29V47H30V46ZM30.0091 46L31.0084 46.0364L31.0462 45H30.0091V46ZM56 46.5C56 53.4036 50.4036 59 43.5 59V61C51.5081 61 58 54.5081 58 46.5H56ZM55.9916 46.0364C55.9972 46.1902 56 46.3447 56 46.5H58C58 46.3205 57.9967 46.1417 57.9902 45.9636L55.9916 46.0364ZM57 45H56.9909V47H57V45ZM56 42V46H58V42H56ZM56.2318 43H57V41H56.2318V43ZM43.5 34C48.941 34 53.5725 37.4769 55.289 42.3332L57.1747 41.6668C55.1846 36.0363 49.815 32 43.5 32V34ZM31.711 42.3332C33.4275 37.4769 38.059 34 43.5 34V32C37.185 32 31.8154 36.0363 29.8253 41.6668L31.711 42.3332ZM30 43H30.7682V41H30V43ZM31 46V42H29V46H31ZM30.0091 45H30V47H30.0091V45ZM31 46.5C31 46.3447 31.0028 46.1902 31.0084 46.0364L29.0097 45.9636C29.0033 46.1417 29 46.3205 29 46.5H31ZM43.5 59C36.5964 59 31 53.4036 31 46.5H29C29 54.5081 35.4919 61 43.5 61V59Z" fill="black" mask="url(#path-139-inside-34_1150_62264)"/>
<circle cx="43.5" cy="42.5" r="13" fill="white" stroke="black"/>
<mask id="path-142-inside-35_1150_62264" fill="white">
<path d="M54 42.5C54 40.8058 53.59 39.1367 52.8051 37.6353C52.0201 36.1339 50.8835 34.8447 49.4923 33.8778L48.916 34.7069C50.1735 35.5808 51.2008 36.7461 51.9103 38.1031C52.6197 39.4601 52.9903 40.9687 52.9903 42.5H54Z"/>
</mask>
<path d="M54 42.5C54 40.8058 53.59 39.1367 52.8051 37.6353C52.0201 36.1339 50.8835 34.8447 49.4923 33.8778L48.916 34.7069C50.1735 35.5808 51.2008 36.7461 51.9103 38.1031C52.6197 39.4601 52.9903 40.9687 52.9903 42.5H54Z" fill="white" stroke="black" stroke-width="2" mask="url(#path-142-inside-35_1150_62264)"/>
<mask id="path-143-inside-36_1150_62264" fill="white">
<path d="M52.8696 47.2392C53.2694 46.4489 53.5675 45.6112 53.757 44.746L52.7706 44.53C52.5994 45.312 52.3299 46.0691 51.9686 46.7834L52.8696 47.2392Z"/>
</mask>
<path d="M52.8696 47.2392C53.2694 46.4489 53.5675 45.6112 53.757 44.746L52.7706 44.53C52.5994 45.312 52.3299 46.0691 51.9686 46.7834L52.8696 47.2392Z" fill="white" stroke="black" stroke-width="2" mask="url(#path-143-inside-36_1150_62264)"/>
<path d="M44 55V59" stroke="black"/>
<path d="M55 48V52" stroke="black"/>
<path d="M32 48V52" stroke="black"/>
<path d="M53 51V55" stroke="black"/>
<path d="M34 51V55" stroke="black"/>
<path d="M49 54V58" stroke="black"/>
<path d="M38 54V58" stroke="black"/>
<mask id="path-151-inside-37_1150_62264" fill="white">
<path fill-rule="evenodd" clip-rule="evenodd" d="M43.5 56C50.9558 56 57 49.9558 57 42.5C57 42.3326 56.997 42.1659 56.9909 42H57V38H56.2318C54.3786 32.7566 49.378 29 43.5 29C37.622 29 32.6214 32.7566 30.7682 38H30V42H30.0091C30.003 42.1659 30 42.3326 30 42.5C30 49.9558 36.0442 56 43.5 56Z"/>
</mask>
<path fill-rule="evenodd" clip-rule="evenodd" d="M43.5 56C50.9558 56 57 49.9558 57 42.5C57 42.3326 56.997 42.1659 56.9909 42H57V38H56.2318C54.3786 32.7566 49.378 29 43.5 29C37.622 29 32.6214 32.7566 30.7682 38H30V42H30.0091C30.003 42.1659 30 42.3326 30 42.5C30 49.9558 36.0442 56 43.5 56Z" fill="white"/>
<path d="M56.9909 42V41H55.9538L55.9916 42.0364L56.9909 42ZM57 42V43H58V42H57ZM57 38H58V37H57V38ZM56.2318 38L55.289 38.3332L55.5246 39H56.2318V38ZM30.7682 38V39H31.4754L31.711 38.3332L30.7682 38ZM30 38V37H29V38H30ZM30 42H29V43H30V42ZM30.0091 42L31.0084 42.0364L31.0462 41H30.0091V42ZM56 42.5C56 49.4036 50.4036 55 43.5 55V57C51.5081 57 58 50.5081 58 42.5H56ZM55.9916 42.0364C55.9972 42.1902 56 42.3447 56 42.5H58C58 42.3205 57.9967 42.1417 57.9902 41.9636L55.9916 42.0364ZM57 41H56.9909V43H57V41ZM56 38V42H58V38H56ZM56.2318 39H57V37H56.2318V39ZM43.5 30C48.941 30 53.5725 33.4769 55.289 38.3332L57.1747 37.6668C55.1846 32.0363 49.815 28 43.5 28V30ZM31.711 38.3332C33.4275 33.4769 38.059 30 43.5 30V28C37.185 28 31.8154 32.0363 29.8253 37.6668L31.711 38.3332ZM30 39H30.7682V37H30V39ZM31 42V38H29V42H31ZM30.0091 41H30V43H30.0091V41ZM31 42.5C31 42.3447 31.0028 42.1902 31.0084 42.0364L29.0097 41.9636C29.0033 42.1417 29 42.3205 29 42.5H31ZM43.5 55C36.5964 55 31 49.4036 31 42.5H29C29 50.5081 35.4919 57 43.5 57V55Z" fill="black" mask="url(#path-151-inside-37_1150_62264)"/>
<circle cx="43.5" cy="38.5" r="13" fill="white" stroke="black"/>
<mask id="path-154-inside-38_1150_62264" fill="white">
<path d="M54 38.5C54 36.8058 53.59 35.1367 52.8051 33.6353C52.0201 32.1339 50.8835 30.8447 49.4923 29.8778L48.916 30.7069C50.1735 31.5808 51.2008 32.7461 51.9103 34.1031C52.6197 35.4601 52.9903 36.9687 52.9903 38.5H54Z"/>
</mask>
<path d="M54 38.5C54 36.8058 53.59 35.1367 52.8051 33.6353C52.0201 32.1339 50.8835 30.8447 49.4923 29.8778L48.916 30.7069C50.1735 31.5808 51.2008 32.7461 51.9103 34.1031C52.6197 35.4601 52.9903 36.9687 52.9903 38.5H54Z" fill="white" stroke="black" stroke-width="2" mask="url(#path-154-inside-38_1150_62264)"/>
<mask id="path-155-inside-39_1150_62264" fill="white">
<path d="M52.8696 43.2392C53.2694 42.4489 53.5675 41.6112 53.757 40.746L52.7706 40.53C52.5994 41.312 52.3299 42.0691 51.9686 42.7834L52.8696 43.2392Z"/>
</mask>
<path d="M52.8696 43.2392C53.2694 42.4489 53.5675 41.6112 53.757 40.746L52.7706 40.53C52.5994 41.312 52.3299 42.0691 51.9686 42.7834L52.8696 43.2392Z" fill="white" stroke="black" stroke-width="2" mask="url(#path-155-inside-39_1150_62264)"/>
<path d="M44 51V55" stroke="black"/>
<path d="M55 44V48" stroke="black"/>
<path d="M32 44V48" stroke="black"/>
<path d="M53 47V51" stroke="black"/>
<path d="M34 47V51" stroke="black"/>
<path d="M49 50V54" stroke="black"/>
<path d="M38 50V54" stroke="black"/>
<mask id="path-163-inside-40_1150_62264" fill="white">
<path fill-rule="evenodd" clip-rule="evenodd" d="M63.5 92C70.9558 92 77 85.9558 77 78.5C77 78.3326 76.997 78.1659 76.9909 78H77V74H76.2318C74.3786 68.7566 69.378 65 63.5 65C57.622 65 52.6214 68.7566 50.7682 74H50V78H50.0091C50.003 78.1659 50 78.3326 50 78.5C50 85.9558 56.0442 92 63.5 92Z"/>
</mask>
<path fill-rule="evenodd" clip-rule="evenodd" d="M63.5 92C70.9558 92 77 85.9558 77 78.5C77 78.3326 76.997 78.1659 76.9909 78H77V74H76.2318C74.3786 68.7566 69.378 65 63.5 65C57.622 65 52.6214 68.7566 50.7682 74H50V78H50.0091C50.003 78.1659 50 78.3326 50 78.5C50 85.9558 56.0442 92 63.5 92Z" fill="white"/>
<path d="M76.9909 78V77H75.9538L75.9916 78.0364L76.9909 78ZM77 78V79H78V78H77ZM77 74H78V73H77V74ZM76.2318 74L75.289 74.3332L75.5246 75H76.2318V74ZM50.7682 74V75H51.4754L51.711 74.3332L50.7682 74ZM50 74V73H49V74H50ZM50 78H49V79H50V78ZM50.0091 78L51.0084 78.0364L51.0462 77H50.0091V78ZM76 78.5C76 85.4036 70.4036 91 63.5 91V93C71.5081 93 78 86.5081 78 78.5H76ZM75.9916 78.0364C75.9972 78.1902 76 78.3447 76 78.5H78C78 78.3205 77.9967 78.1417 77.9902 77.9636L75.9916 78.0364ZM77 77H76.9909V79H77V77ZM76 74V78H78V74H76ZM76.2318 75H77V73H76.2318V75ZM63.5 66C68.941 66 73.5725 69.4769 75.289 74.3332L77.1747 73.6668C75.1846 68.0363 69.815 64 63.5 64V66ZM51.711 74.3332C53.4275 69.4769 58.059 66 63.5 66V64C57.185 64 51.8154 68.0363 49.8253 73.6668L51.711 74.3332ZM50 75H50.7682V73H50V75ZM51 78V74H49V78H51ZM50.0091 77H50V79H50.0091V77ZM51 78.5C51 78.3447 51.0028 78.1902 51.0084 78.0364L49.0097 77.9636C49.0033 78.1417 49 78.3205 49 78.5H51ZM63.5 91C56.5964 91 51 85.4036 51 78.5H49C49 86.5081 55.4919 93 63.5 93V91Z" fill="black" mask="url(#path-163-inside-40_1150_62264)"/>
<circle cx="63.5" cy="74.5" r="13" fill="white" stroke="black"/>
<mask id="path-166-inside-41_1150_62264" fill="white">
<path d="M74 74.5C74 72.8058 73.59 71.1367 72.8051 69.6353C72.0201 68.1339 70.8835 66.8447 69.4923 65.8778L68.916 66.7069C70.1735 67.5808 71.2008 68.7461 71.9103 70.1031C72.6197 71.4601 72.9903 72.9687 72.9903 74.5H74Z"/>
</mask>
<path d="M74 74.5C74 72.8058 73.59 71.1367 72.8051 69.6353C72.0201 68.1339 70.8835 66.8447 69.4923 65.8778L68.916 66.7069C70.1735 67.5808 71.2008 68.7461 71.9103 70.1031C72.6197 71.4601 72.9903 72.9687 72.9903 74.5H74Z" fill="white" stroke="black" stroke-width="2" mask="url(#path-166-inside-41_1150_62264)"/>
<mask id="path-167-inside-42_1150_62264" fill="white">
<path d="M72.8696 79.2392C73.2694 78.4489 73.5675 77.6112 73.757 76.746L72.7706 76.53C72.5994 77.312 72.3299 78.0691 71.9686 78.7834L72.8696 79.2392Z"/>
</mask>
<path d="M72.8696 79.2392C73.2694 78.4489 73.5675 77.6112 73.757 76.746L72.7706 76.53C72.5994 77.312 72.3299 78.0691 71.9686 78.7834L72.8696 79.2392Z" fill="white" stroke="black" stroke-width="2" mask="url(#path-167-inside-42_1150_62264)"/>
<path d="M64 87V91" stroke="black"/>
<path d="M75 80V84" stroke="black"/>
<path d="M52 80V84" stroke="black"/>
<path d="M73 83V87" stroke="black"/>
<path d="M54 83V87" stroke="black"/>
<path d="M69 86V90" stroke="black"/>
<path d="M58 86V90" stroke="black"/>
<mask id="path-175-inside-43_1150_62264" fill="white">
<path fill-rule="evenodd" clip-rule="evenodd" d="M63.5 88C70.9558 88 77 81.9558 77 74.5C77 74.3326 76.997 74.1659 76.9909 74H77V70H76.2318C74.3786 64.7566 69.378 61 63.5 61C57.622 61 52.6214 64.7566 50.7682 70H50V74H50.0091C50.003 74.1659 50 74.3326 50 74.5C50 81.9558 56.0442 88 63.5 88Z"/>
</mask>
<path fill-rule="evenodd" clip-rule="evenodd" d="M63.5 88C70.9558 88 77 81.9558 77 74.5C77 74.3326 76.997 74.1659 76.9909 74H77V70H76.2318C74.3786 64.7566 69.378 61 63.5 61C57.622 61 52.6214 64.7566 50.7682 70H50V74H50.0091C50.003 74.1659 50 74.3326 50 74.5C50 81.9558 56.0442 88 63.5 88Z" fill="white"/>
<path d="M76.9909 74V73H75.9538L75.9916 74.0364L76.9909 74ZM77 74V75H78V74H77ZM77 70H78V69H77V70ZM76.2318 70L75.289 70.3332L75.5246 71H76.2318V70ZM50.7682 70V71H51.4754L51.711 70.3332L50.7682 70ZM50 70V69H49V70H50ZM50 74H49V75H50V74ZM50.0091 74L51.0084 74.0364L51.0462 73H50.0091V74ZM76 74.5C76 81.4036 70.4036 87 63.5 87V89C71.5081 89 78 82.5081 78 74.5H76ZM75.9916 74.0364C75.9972 74.1902 76 74.3447 76 74.5H78C78 74.3205 77.9967 74.1417 77.9902 73.9636L75.9916 74.0364ZM77 73H76.9909V75H77V73ZM76 70V74H78V70H76ZM76.2318 71H77V69H76.2318V71ZM63.5 62C68.941 62 73.5725 65.4769 75.289 70.3332L77.1747 69.6668C75.1846 64.0363 69.815 60 63.5 60V62ZM51.711 70.3332C53.4275 65.4769 58.059 62 63.5 62V60C57.185 60 51.8154 64.0363 49.8253 69.6668L51.711 70.3332ZM50 71H50.7682V69H50V71ZM51 74V70H49V74H51ZM50.0091 73H50V75H50.0091V73ZM51 74.5C51 74.3447 51.0028 74.1902 51.0084 74.0364L49.0097 73.9636C49.0033 74.1417 49 74.3205 49 74.5H51ZM63.5 87C56.5964 87 51 81.4036 51 74.5H49C49 82.5081 55.4919 89 63.5 89V87Z" fill="black" mask="url(#path-175-inside-43_1150_62264)"/>
<circle cx="63.5" cy="70.5" r="13" fill="white" stroke="black"/>
<mask id="path-178-inside-44_1150_62264" fill="white">
<path d="M74 70.5C74 68.8058 73.59 67.1367 72.8051 65.6353C72.0201 64.1339 70.8835 62.8447 69.4923 61.8778L68.916 62.7069C70.1735 63.5808 71.2008 64.7461 71.9103 66.1031C72.6197 67.4601 72.9903 68.9687 72.9903 70.5H74Z"/>
</mask>
<path d="M74 70.5C74 68.8058 73.59 67.1367 72.8051 65.6353C72.0201 64.1339 70.8835 62.8447 69.4923 61.8778L68.916 62.7069C70.1735 63.5808 71.2008 64.7461 71.9103 66.1031C72.6197 67.4601 72.9903 68.9687 72.9903 70.5H74Z" fill="white" stroke="black" stroke-width="2" mask="url(#path-178-inside-44_1150_62264)"/>
<mask id="path-179-inside-45_1150_62264" fill="white">
<path d="M72.8696 75.2392C73.2694 74.4489 73.5675 73.6112 73.757 72.746L72.7706 72.53C72.5994 73.312 72.3299 74.0691 71.9686 74.7834L72.8696 75.2392Z"/>
</mask>
<path d="M72.8696 75.2392C73.2694 74.4489 73.5675 73.6112 73.757 72.746L72.7706 72.53C72.5994 73.312 72.3299 74.0691 71.9686 74.7834L72.8696 75.2392Z" fill="white" stroke="black" stroke-width="2" mask="url(#path-179-inside-45_1150_62264)"/>
<path d="M64 83V87" stroke="black"/>
<path d="M75 76V80" stroke="black"/>
<path d="M52 76V80" stroke="black"/>
<path d="M73 79V83" stroke="black"/>
<path d="M54 79V83" stroke="black"/>
<path d="M69 82V86" stroke="black"/>
<path d="M58 82V86" stroke="black"/>
<mask id="path-187-inside-46_1150_62264" fill="white">
<path fill-rule="evenodd" clip-rule="evenodd" d="M63.5 84C70.9558 84 77 77.9558 77 70.5C77 70.3326 76.997 70.1659 76.9909 70H77V66H76.2318C74.3786 60.7566 69.378 57 63.5 57C57.622 57 52.6214 60.7566 50.7682 66H50V70H50.0091C50.003 70.1659 50 70.3326 50 70.5C50 77.9558 56.0442 84 63.5 84Z"/>
</mask>
<path fill-rule="evenodd" clip-rule="evenodd" d="M63.5 84C70.9558 84 77 77.9558 77 70.5C77 70.3326 76.997 70.1659 76.9909 70H77V66H76.2318C74.3786 60.7566 69.378 57 63.5 57C57.622 57 52.6214 60.7566 50.7682 66H50V70H50.0091C50.003 70.1659 50 70.3326 50 70.5C50 77.9558 56.0442 84 63.5 84Z" fill="white"/>
<path d="M76.9909 70V69H75.9538L75.9916 70.0364L76.9909 70ZM77 70V71H78V70H77ZM77 66H78V65H77V66ZM76.2318 66L75.289 66.3332L75.5246 67H76.2318V66ZM50.7682 66V67H51.4754L51.711 66.3332L50.7682 66ZM50 66V65H49V66H50ZM50 70H49V71H50V70ZM50.0091 70L51.0084 70.0364L51.0462 69H50.0091V70ZM76 70.5C76 77.4036 70.4036 83 63.5 83V85C71.5081 85 78 78.5081 78 70.5H76ZM75.9916 70.0364C75.9972 70.1902 76 70.3447 76 70.5H78C78 70.3205 77.9967 70.1417 77.9902 69.9636L75.9916 70.0364ZM77 69H76.9909V71H77V69ZM76 66V70H78V66H76ZM76.2318 67H77V65H76.2318V67ZM63.5 58C68.941 58 73.5725 61.4769 75.289 66.3332L77.1747 65.6668C75.1846 60.0363 69.815 56 63.5 56V58ZM51.711 66.3332C53.4275 61.4769 58.059 58 63.5 58V56C57.185 56 51.8154 60.0363 49.8253 65.6668L51.711 66.3332ZM50 67H50.7682V65H50V67ZM51 70V66H49V70H51ZM50.0091 69H50V71H50.0091V69ZM51 70.5C51 70.3447 51.0028 70.1902 51.0084 70.0364L49.0097 69.9636C49.0033 70.1417 49 70.3205 49 70.5H51ZM63.5 83C56.5964 83 51 77.4036 51 70.5H49C49 78.5081 55.4919 85 63.5 85V83Z" fill="black" mask="url(#path-187-inside-46_1150_62264)"/>
<circle cx="63.5" cy="66.5" r="13" fill="white" stroke="black"/>
<mask id="path-190-inside-47_1150_62264" fill="white">
<path d="M74 66.5C74 64.8058 73.59 63.1367 72.8051 61.6353C72.0201 60.1339 70.8835 58.8447 69.4923 57.8778L68.916 58.7069C70.1735 59.5808 71.2008 60.7461 71.9103 62.1031C72.6197 63.4601 72.9903 64.9687 72.9903 66.5H74Z"/>
</mask>
<path d="M74 66.5C74 64.8058 73.59 63.1367 72.8051 61.6353C72.0201 60.1339 70.8835 58.8447 69.4923 57.8778L68.916 58.7069C70.1735 59.5808 71.2008 60.7461 71.9103 62.1031C72.6197 63.4601 72.9903 64.9687 72.9903 66.5H74Z" fill="white" stroke="black" stroke-width="2" mask="url(#path-190-inside-47_1150_62264)"/>
<mask id="path-191-inside-48_1150_62264" fill="white">
<path d="M72.8696 71.2392C73.2694 70.4489 73.5675 69.6112 73.757 68.746L72.7706 68.53C72.5994 69.312 72.3299 70.0691 71.9686 70.7834L72.8696 71.2392Z"/>
</mask>
<path d="M72.8696 71.2392C73.2694 70.4489 73.5675 69.6112 73.757 68.746L72.7706 68.53C72.5994 69.312 72.3299 70.0691 71.9686 70.7834L72.8696 71.2392Z" fill="white" stroke="black" stroke-width="2" mask="url(#path-191-inside-48_1150_62264)"/>
<path d="M64 79V83" stroke="black"/>
<path d="M75 72V76" stroke="black"/>
<path d="M52 72V76" stroke="black"/>
<path d="M73 75V79" stroke="black"/>
<path d="M54 75V79" stroke="black"/>
<path d="M69 78V82" stroke="black"/>
<path d="M58 78V82" stroke="black"/>
</svg>
