<svg width="128" height="128" viewBox="0 0 128 128" fill="none" xmlns="http://www.w3.org/2000/svg">
<path fill-rule="evenodd" clip-rule="evenodd" d="M117.997 64.5607L108.998 64.4691C108.999 64.313 109 64.1566 109 64C109 63.8434 108.999 63.687 108.998 63.5309L117.997 63.4393C117.999 63.626 118 63.8129 118 64C118 64.1871 117.999 64.374 117.997 64.5607ZM114.113 43.8455L105.764 47.2064C105.649 46.9192 105.53 46.6334 105.409 46.3491L113.686 42.8154C113.832 43.157 113.974 43.5004 114.113 43.8455ZM102.576 26.2129L96.1474 32.5111C95.9301 32.2894 95.7106 32.0699 95.4889 31.8526L101.787 25.4236C102.053 25.684 102.316 25.9471 102.576 26.2129ZM85.1846 14.3139L81.6509 22.5911C81.3666 22.4697 81.0808 22.3512 80.7936 22.2356L84.1545 13.8867C84.4996 14.0256 84.843 14.168 85.1846 14.3139ZM64.5607 10.0029L64.4691 19.0024C64.313 19.0008 64.1566 19 64 19C63.8434 19 63.687 19.0008 63.5309 19.0024L63.4393 10.0029C63.626 10.001 63.8129 10 64 10C64.1871 10 64.374 10.001 64.5607 10.0029ZM43.8455 13.8867L47.2064 22.2356C46.9192 22.3512 46.6334 22.4697 46.3491 22.5911L42.8154 14.3139C43.157 14.168 43.5004 14.0256 43.8455 13.8867ZM26.2129 25.4236L32.5111 31.8526C32.2894 32.0699 32.0699 32.2894 31.8526 32.5111L25.4236 26.2129C25.684 25.9471 25.9471 25.684 26.2129 25.4236ZM14.3139 42.8154L22.5911 46.3491C22.4697 46.6334 22.3512 46.9192 22.2356 47.2064L13.8867 43.8455C14.0256 43.5004 14.168 43.157 14.3139 42.8154ZM10.0029 63.4393C10.001 63.626 10 63.8129 10 64C10 64.1871 10.001 64.374 10.0029 64.5607L19.0024 64.4691C19.0008 64.313 19 64.1566 19 64C19 63.8434 19.0008 63.687 19.0024 63.5309L10.0029 63.4393ZM13.8867 84.1545L22.2356 80.7936C22.3512 81.0808 22.4697 81.3666 22.5911 81.6509L14.3139 85.1846C14.168 84.843 14.0256 84.4996 13.8867 84.1545ZM25.4236 101.787L31.8526 95.4889C32.0699 95.7106 32.2894 95.9301 32.5111 96.1474L26.2129 102.576C25.9471 102.316 25.684 102.053 25.4236 101.787ZM42.8154 113.686L46.3491 105.409C46.6334 105.53 46.9192 105.649 47.2064 105.764L43.8455 114.113C43.5004 113.974 43.157 113.832 42.8154 113.686ZM63.4393 117.997L63.5309 108.998C63.687 108.999 63.8434 109 64 109C64.1566 109 64.313 108.999 64.4691 108.998L64.5607 117.997C64.374 117.999 64.1871 118 64 118C63.8129 118 63.626 117.999 63.4393 117.997ZM84.1545 114.113L80.7936 105.764C81.0808 105.649 81.3666 105.53 81.6509 105.409L85.1846 113.686C84.843 113.832 84.4996 113.974 84.1545 114.113ZM101.787 102.576L95.4889 96.1474C95.7106 95.9301 95.9301 95.7106 96.1474 95.4889L102.576 101.787C102.316 102.053 102.053 102.316 101.787 102.576ZM113.686 85.1846L105.409 81.6509C105.53 81.3666 105.649 81.0808 105.764 80.7936L114.113 84.1545C113.974 84.4996 113.832 84.843 113.686 85.1846Z" fill="black"/>
<circle cx="64" cy="64" r="37.5" stroke="black"/>
<circle cx="64" cy="64" r="9.5" stroke="black" stroke-width="9"/>
<mask id="path-4-inside-1_1150_54598" fill="white">
<path fill-rule="evenodd" clip-rule="evenodd" d="M64.0002 85C69.8217 85 75.0899 82.6312 78.8936 78.805L78.969 78.8804L93.9292 63.9202L78.969 48.96L78.8138 49.1152C75.0164 45.3358 69.7811 43 64.0002 43C58.2013 43 52.9513 45.3505 49.151 49.1508L48.9602 48.96L34 63.9202L48.9602 78.8804L49.0714 78.7692C52.8778 82.6165 58.1606 85 64.0002 85Z"/>
</mask>
<path d="M78.8936 78.805L79.6007 78.0979L78.8915 77.3887L78.1844 78.1L78.8936 78.805ZM78.969 78.8804L78.2619 79.5875L78.969 80.2946L79.6761 79.5875L78.969 78.8804ZM93.9292 63.9202L94.6363 64.6273L95.3434 63.9202L94.6363 63.2131L93.9292 63.9202ZM78.969 48.96L79.6761 48.2529L78.969 47.5457L78.2619 48.2529L78.969 48.96ZM78.8138 49.1152L78.1084 49.8239L78.8155 50.5277L79.5209 49.8223L78.8138 49.1152ZM49.151 49.1508L48.4439 49.8579L49.151 50.565L49.8581 49.8579L49.151 49.1508ZM48.9602 48.96L49.6673 48.2529L48.9602 47.5457L48.2531 48.2529L48.9602 48.96ZM34 63.9202L33.2929 63.2131L32.5858 63.9202L33.2929 64.6273L34 63.9202ZM48.9602 78.8804L48.2531 79.5875L48.9602 80.2946L49.6673 79.5875L48.9602 78.8804ZM49.0714 78.7692L49.7823 78.0659L49.0752 77.3512L48.3643 78.0621L49.0714 78.7692ZM78.1844 78.1C74.5607 81.7451 69.5448 84 64.0002 84V86C70.0987 86 75.6191 83.5173 79.6028 79.51L78.1844 78.1ZM79.6761 78.1733L79.6007 78.0979L78.1865 79.5121L78.2619 79.5875L79.6761 78.1733ZM93.2221 63.2131L78.2619 78.1733L79.6761 79.5875L94.6363 64.6273L93.2221 63.2131ZM78.2619 49.6671L93.2221 64.6273L94.6363 63.2131L79.6761 48.2529L78.2619 49.6671ZM79.5209 49.8223L79.6761 49.6671L78.2619 48.2529L78.1067 48.4081L79.5209 49.8223ZM64.0002 44C69.5061 44 74.4907 46.2235 78.1084 49.8239L79.5192 48.4064C75.5421 44.4481 70.0561 42 64.0002 42V44ZM49.8581 49.8579C53.4785 46.2375 58.4771 44 64.0002 44V42C57.9254 42 52.424 44.4635 48.4439 48.4437L49.8581 49.8579ZM48.2531 49.6671L48.4439 49.8579L49.8581 48.4436L49.6673 48.2529L48.2531 49.6671ZM34.7071 64.6273L49.6673 49.6671L48.2531 48.2529L33.2929 63.2131L34.7071 64.6273ZM49.6673 78.1733L34.7071 63.2131L33.2929 64.6273L48.2531 79.5875L49.6673 78.1733ZM48.3643 78.0621L48.2531 78.1733L49.6673 79.5875L49.7785 79.4763L48.3643 78.0621ZM64.0002 84C58.4385 84 53.4085 81.7311 49.7823 78.0659L48.3605 79.4725C52.347 83.5018 57.8828 86 64.0002 86V84Z" fill="black" mask="url(#path-4-inside-1_1150_54598)"/>
</svg>
