<svg width="128" height="128" viewBox="0 0 128 128" fill="none" xmlns="http://www.w3.org/2000/svg">
<mask id="path-1-inside-1_1150_58797" fill="white">
<path fill-rule="evenodd" clip-rule="evenodd" d="M45 111.353C49.9706 111.353 54 107.384 54 102.488C54 102.378 53.998 102.269 53.994 102.16H54V99.5339H53.4882C52.2529 96.0905 48.919 93.6233 45 93.6233C41.081 93.6233 37.7471 96.0905 36.5118 99.5339H36V102.16H36.006C36.002 102.269 36 102.378 36 102.488C36 107.384 40.0294 111.353 45 111.353Z"/>
</mask>
<path fill-rule="evenodd" clip-rule="evenodd" d="M45 111.353C49.9706 111.353 54 107.384 54 102.488C54 102.378 53.998 102.269 53.994 102.16H54V99.5339H53.4882C52.2529 96.0905 48.919 93.6233 45 93.6233C41.081 93.6233 37.7471 96.0905 36.5118 99.5339H36V102.16H36.006C36.002 102.269 36 102.378 36 102.488C36 107.384 40.0294 111.353 45 111.353Z" fill="white"/>
<path d="M53.994 102.16V101.16H52.9564L52.9947 102.197L53.994 102.16ZM54 102.16V103.16H55V102.16H54ZM54 99.5339H55V98.5339H54V99.5339ZM53.4882 99.5339L52.5469 99.8716L52.7845 100.534H53.4882V99.5339ZM36.5118 99.5339V100.534H37.2155L37.4531 99.8716L36.5118 99.5339ZM36 99.5339V98.5339H35V99.5339H36ZM36 102.16H35V103.16H36V102.16ZM36.006 102.16L37.0053 102.197L37.0436 101.16H36.006V102.16ZM53 102.488C53 106.817 49.4326 110.353 45 110.353V112.353C50.5085 112.353 55 107.95 55 102.488H53ZM52.9947 102.197C52.9982 102.294 53 102.391 53 102.488H55C55 102.366 54.9978 102.245 54.9933 102.124L52.9947 102.197ZM54 101.16H53.994V103.16H54V101.16ZM53 99.5339V102.16H55V99.5339H53ZM53.4882 100.534H54V98.5339H53.4882V100.534ZM45 94.6233C48.4915 94.6233 51.4523 96.8203 52.5469 99.8716L54.4295 99.1962C53.0535 95.3606 49.3465 92.6233 45 92.6233V94.6233ZM37.4531 99.8716C38.5477 96.8203 41.5085 94.6233 45 94.6233V92.6233C40.6535 92.6233 36.9465 95.3606 35.5705 99.1962L37.4531 99.8716ZM36 100.534H36.5118V98.5339H36V100.534ZM37 102.16V99.5339H35V102.16H37ZM36.006 101.16H36V103.16H36.006V101.16ZM37 102.488C37 102.391 37.0018 102.294 37.0053 102.197L35.0067 102.124C35.0022 102.245 35 102.366 35 102.488H37ZM45 110.353C40.5674 110.353 37 106.817 37 102.488H35C35 107.95 39.4915 112.353 45 112.353V110.353Z" fill="black" mask="url(#path-1-inside-1_1150_58797)"/>
<path d="M53.5 99.8647C53.5 104.477 49.7016 108.229 45 108.229C40.2984 108.229 36.5 104.477 36.5 99.8647C36.5 95.2521 40.2984 91.5 45 91.5C49.7016 91.5 53.5 95.2521 53.5 99.8647Z" fill="white" stroke="black"/>
<mask id="path-4-inside-2_1150_58797" fill="white">
<path d="M52 100C52 98.8705 51.7267 97.7578 51.2034 96.7569C50.6801 95.7559 49.9223 94.8964 48.9949 94.2519L48.4258 95.0706C49.2212 95.6234 49.871 96.3604 50.3198 97.2188C50.7686 98.0772 51.0029 99.0314 51.0029 100H52Z"/>
</mask>
<path d="M52 100C52 98.8705 51.7267 97.7578 51.2034 96.7569C50.6801 95.7559 49.9223 94.8964 48.9949 94.2519L48.4258 95.0706C49.2212 95.6234 49.871 96.3604 50.3198 97.2188C50.7686 98.0772 51.0029 99.0314 51.0029 100H52Z" fill="white" stroke="black" stroke-width="2" mask="url(#path-4-inside-2_1150_58797)"/>
<mask id="path-5-inside-3_1150_58797" fill="white">
<path d="M51.2464 103.159C51.5129 102.633 51.7117 102.074 51.838 101.497L50.8642 101.284C50.7559 101.779 50.5855 102.258 50.3569 102.71L51.2464 103.159Z"/>
</mask>
<path d="M51.2464 103.159C51.5129 102.633 51.7117 102.074 51.838 101.497L50.8642 101.284C50.7559 101.779 50.5855 102.258 50.3569 102.71L51.2464 103.159Z" fill="white" stroke="black" stroke-width="2" mask="url(#path-5-inside-3_1150_58797)"/>
<path d="M45.3325 108.074V110.701" stroke="black"/>
<path d="M52.6672 103.474V106.101" stroke="black"/>
<path d="M37.3323 103.474V106.101" stroke="black"/>
<path d="M51.3328 105.446V108.073" stroke="black"/>
<path d="M38.6672 105.446V108.073" stroke="black"/>
<path d="M48.667 107.415V110.041" stroke="black"/>
<path d="M41.333 107.415V110.041" stroke="black"/>
<mask id="path-13-inside-4_1150_58797" fill="white">
<path fill-rule="evenodd" clip-rule="evenodd" d="M34 100.353C38.9706 100.353 43 96.3838 43 91.488C43 91.3783 42.998 91.2691 42.994 91.1605H43V88.5339H42.4882C41.2529 85.0905 37.919 82.6233 34 82.6233C30.081 82.6233 26.7471 85.0905 25.5118 88.5339H25V91.1605H25.006C25.002 91.2691 25 91.3783 25 91.488C25 96.3838 29.0294 100.353 34 100.353Z"/>
</mask>
<path fill-rule="evenodd" clip-rule="evenodd" d="M34 100.353C38.9706 100.353 43 96.3838 43 91.488C43 91.3783 42.998 91.2691 42.994 91.1605H43V88.5339H42.4882C41.2529 85.0905 37.919 82.6233 34 82.6233C30.081 82.6233 26.7471 85.0905 25.5118 88.5339H25V91.1605H25.006C25.002 91.2691 25 91.3783 25 91.488C25 96.3838 29.0294 100.353 34 100.353Z" fill="white"/>
<path d="M42.994 91.1605V90.1605H41.9564L41.9947 91.1973L42.994 91.1605ZM43 91.1605V92.1605H44V91.1605H43ZM43 88.5339H44V87.5339H43V88.5339ZM42.4882 88.5339L41.5469 88.8716L41.7845 89.5339H42.4882V88.5339ZM25.5118 88.5339V89.5339H26.2155L26.4531 88.8716L25.5118 88.5339ZM25 88.5339V87.5339H24V88.5339H25ZM25 91.1605H24V92.1605H25V91.1605ZM25.006 91.1605L26.0053 91.1973L26.0436 90.1605H25.006V91.1605ZM42 91.488C42 95.8173 38.4326 99.3526 34 99.3526V101.353C39.5085 101.353 44 96.9503 44 91.488H42ZM41.9947 91.1973C41.9982 91.2937 42 91.3906 42 91.488H44C44 91.366 43.9978 91.2446 43.9933 91.1236L41.9947 91.1973ZM43 90.1605H42.994V92.1605H43V90.1605ZM42 88.5339V91.1605H44V88.5339H42ZM42.4882 89.5339H43V87.5339H42.4882V89.5339ZM34 83.6233C37.4915 83.6233 40.4523 85.8203 41.5469 88.8716L43.4295 88.1962C42.0535 84.3606 38.3465 81.6233 34 81.6233V83.6233ZM26.4531 88.8716C27.5477 85.8203 30.5085 83.6233 34 83.6233V81.6233C29.6535 81.6233 25.9465 84.3606 24.5705 88.1962L26.4531 88.8716ZM25 89.5339H25.5118V87.5339H25V89.5339ZM26 91.1605V88.5339H24V91.1605H26ZM25.006 90.1605H25V92.1605H25.006V90.1605ZM26 91.488C26 91.3906 26.0018 91.2937 26.0053 91.1973L24.0067 91.1236C24.0022 91.2446 24 91.366 24 91.488H26ZM34 99.3526C29.5674 99.3526 26 95.8173 26 91.488H24C24 96.9503 28.4915 101.353 34 101.353V99.3526Z" fill="black" mask="url(#path-13-inside-4_1150_58797)"/>
<path d="M42.5 88.8647C42.5 93.4772 38.7016 97.2293 34 97.2293C29.2984 97.2293 25.5 93.4772 25.5 88.8647C25.5 84.2521 29.2984 80.5 34 80.5C38.7016 80.5 42.5 84.2521 42.5 88.8647Z" fill="white" stroke="black"/>
<mask id="path-16-inside-5_1150_58797" fill="white">
<path d="M41 89C41 87.8705 40.7267 86.7578 40.2034 85.7569C39.6801 84.7559 38.9223 83.8964 37.9949 83.2519L37.4258 84.0706C38.2212 84.6234 38.871 85.3604 39.3198 86.2188C39.7686 87.0772 40.0029 88.0314 40.0029 89H41Z"/>
</mask>
<path d="M41 89C41 87.8705 40.7267 86.7578 40.2034 85.7569C39.6801 84.7559 38.9223 83.8964 37.9949 83.2519L37.4258 84.0706C38.2212 84.6234 38.871 85.3604 39.3198 86.2188C39.7686 87.0772 40.0029 88.0314 40.0029 89H41Z" fill="white" stroke="black" stroke-width="2" mask="url(#path-16-inside-5_1150_58797)"/>
<mask id="path-17-inside-6_1150_58797" fill="white">
<path d="M40.2464 92.1595C40.5129 91.6326 40.7117 91.0741 40.838 90.4974L39.8642 90.2841C39.7559 90.7788 39.5855 91.2577 39.3569 91.7095L40.2464 92.1595Z"/>
</mask>
<path d="M40.2464 92.1595C40.5129 91.6326 40.7117 91.0741 40.838 90.4974L39.8642 90.2841C39.7559 90.7788 39.5855 91.2577 39.3569 91.7095L40.2464 92.1595Z" fill="white" stroke="black" stroke-width="2" mask="url(#path-17-inside-6_1150_58797)"/>
<path d="M34.3325 97.0745V99.701" stroke="black"/>
<path d="M41.6672 92.4744V95.1009" stroke="black"/>
<path d="M26.3323 92.4744V95.1009" stroke="black"/>
<path d="M40.3328 94.446V97.0726" stroke="black"/>
<path d="M27.6672 94.446V97.0726" stroke="black"/>
<path d="M37.667 96.4148V99.0414" stroke="black"/>
<path d="M30.333 96.4148V99.0414" stroke="black"/>
<mask id="path-25-inside-7_1150_58797" fill="white">
<path fill-rule="evenodd" clip-rule="evenodd" d="M71 104.353C75.9706 104.353 80 100.384 80 95.488C80 95.3783 79.998 95.2691 79.994 95.1605H80V92.5339H79.4882C78.2529 89.0905 74.919 86.6233 71 86.6233C67.081 86.6233 63.7471 89.0905 62.5118 92.5339H62V95.1605H62.006C62.002 95.2691 62 95.3783 62 95.488C62 100.384 66.0294 104.353 71 104.353Z"/>
</mask>
<path fill-rule="evenodd" clip-rule="evenodd" d="M71 104.353C75.9706 104.353 80 100.384 80 95.488C80 95.3783 79.998 95.2691 79.994 95.1605H80V92.5339H79.4882C78.2529 89.0905 74.919 86.6233 71 86.6233C67.081 86.6233 63.7471 89.0905 62.5118 92.5339H62V95.1605H62.006C62.002 95.2691 62 95.3783 62 95.488C62 100.384 66.0294 104.353 71 104.353Z" fill="white"/>
<path d="M79.994 95.1605V94.1605H78.9564L78.9947 95.1973L79.994 95.1605ZM80 95.1605V96.1605H81V95.1605H80ZM80 92.5339H81V91.5339H80V92.5339ZM79.4882 92.5339L78.5469 92.8716L78.7845 93.5339H79.4882V92.5339ZM62.5118 92.5339V93.5339H63.2155L63.4531 92.8716L62.5118 92.5339ZM62 92.5339V91.5339H61V92.5339H62ZM62 95.1605H61V96.1605H62V95.1605ZM62.006 95.1605L63.0053 95.1973L63.0436 94.1605H62.006V95.1605ZM79 95.488C79 99.8173 75.4326 103.353 71 103.353V105.353C76.5085 105.353 81 100.95 81 95.488H79ZM78.9947 95.1973C78.9982 95.2937 79 95.3906 79 95.488H81C81 95.366 80.9978 95.2446 80.9933 95.1236L78.9947 95.1973ZM80 94.1605H79.994V96.1605H80V94.1605ZM79 92.5339V95.1605H81V92.5339H79ZM79.4882 93.5339H80V91.5339H79.4882V93.5339ZM71 87.6233C74.4915 87.6233 77.4523 89.8203 78.5469 92.8716L80.4295 92.1962C79.0535 88.3606 75.3465 85.6233 71 85.6233V87.6233ZM63.4531 92.8716C64.5477 89.8203 67.5085 87.6233 71 87.6233V85.6233C66.6535 85.6233 62.9465 88.3606 61.5705 92.1962L63.4531 92.8716ZM62 93.5339H62.5118V91.5339H62V93.5339ZM63 95.1605V92.5339H61V95.1605H63ZM62.006 94.1605H62V96.1605H62.006V94.1605ZM63 95.488C63 95.3906 63.0018 95.2937 63.0053 95.1973L61.0067 95.1236C61.0022 95.2446 61 95.366 61 95.488H63ZM71 103.353C66.5674 103.353 63 99.8173 63 95.488H61C61 100.95 65.4915 105.353 71 105.353V103.353Z" fill="black" mask="url(#path-25-inside-7_1150_58797)"/>
<path d="M79.5 92.8647C79.5 97.4772 75.7016 101.229 71 101.229C66.2984 101.229 62.5 97.4772 62.5 92.8647C62.5 88.2521 66.2984 84.5 71 84.5C75.7016 84.5 79.5 88.2521 79.5 92.8647Z" fill="white" stroke="black"/>
<mask id="path-28-inside-8_1150_58797" fill="white">
<path d="M78 93C78 91.8705 77.7267 90.7578 77.2034 89.7569C76.6801 88.7559 75.9223 87.8964 74.9949 87.2519L74.4258 88.0706C75.2212 88.6234 75.871 89.3604 76.3198 90.2188C76.7686 91.0772 77.0029 92.0314 77.0029 93H78Z"/>
</mask>
<path d="M78 93C78 91.8705 77.7267 90.7578 77.2034 89.7569C76.6801 88.7559 75.9223 87.8964 74.9949 87.2519L74.4258 88.0706C75.2212 88.6234 75.871 89.3604 76.3198 90.2188C76.7686 91.0772 77.0029 92.0314 77.0029 93H78Z" fill="white" stroke="black" stroke-width="2" mask="url(#path-28-inside-8_1150_58797)"/>
<mask id="path-29-inside-9_1150_58797" fill="white">
<path d="M77.2464 96.1595C77.5129 95.6326 77.7117 95.0741 77.838 94.4974L76.8642 94.2841C76.7559 94.7788 76.5855 95.2577 76.3569 95.7095L77.2464 96.1595Z"/>
</mask>
<path d="M77.2464 96.1595C77.5129 95.6326 77.7117 95.0741 77.838 94.4974L76.8642 94.2841C76.7559 94.7788 76.5855 95.2577 76.3569 95.7095L77.2464 96.1595Z" fill="white" stroke="black" stroke-width="2" mask="url(#path-29-inside-9_1150_58797)"/>
<path d="M71.3325 101.074V103.701" stroke="black"/>
<path d="M78.6672 96.4744V99.1009" stroke="black"/>
<path d="M63.3323 96.4744V99.1009" stroke="black"/>
<path d="M77.3328 98.446V101.073" stroke="black"/>
<path d="M64.6672 98.446V101.073" stroke="black"/>
<path d="M74.667 100.415V103.041" stroke="black"/>
<path d="M67.333 100.415V103.041" stroke="black"/>
<mask id="path-37-inside-10_1150_58797" fill="white">
<path fill-rule="evenodd" clip-rule="evenodd" d="M94 115.353C98.9706 115.353 103 111.384 103 106.488C103 106.378 102.998 106.269 102.994 106.16H103V103.534H102.488C101.253 100.09 97.919 97.6233 94 97.6233C90.081 97.6233 86.7471 100.09 85.5118 103.534H85V106.16H85.006C85.002 106.269 85 106.378 85 106.488C85 111.384 89.0294 115.353 94 115.353Z"/>
</mask>
<path fill-rule="evenodd" clip-rule="evenodd" d="M94 115.353C98.9706 115.353 103 111.384 103 106.488C103 106.378 102.998 106.269 102.994 106.16H103V103.534H102.488C101.253 100.09 97.919 97.6233 94 97.6233C90.081 97.6233 86.7471 100.09 85.5118 103.534H85V106.16H85.006C85.002 106.269 85 106.378 85 106.488C85 111.384 89.0294 115.353 94 115.353Z" fill="white"/>
<path d="M102.994 106.16V105.16H101.956L101.995 106.197L102.994 106.16ZM103 106.16V107.16H104V106.16H103ZM103 103.534H104V102.534H103V103.534ZM102.488 103.534L101.547 103.872L101.785 104.534H102.488V103.534ZM85.5118 103.534V104.534H86.2155L86.4531 103.872L85.5118 103.534ZM85 103.534V102.534H84V103.534H85ZM85 106.16H84V107.16H85V106.16ZM85.006 106.16L86.0053 106.197L86.0436 105.16H85.006V106.16ZM102 106.488C102 110.817 98.4326 114.353 94 114.353V116.353C99.5085 116.353 104 111.95 104 106.488H102ZM101.995 106.197C101.998 106.294 102 106.391 102 106.488H104C104 106.366 103.998 106.245 103.993 106.124L101.995 106.197ZM103 105.16H102.994V107.16H103V105.16ZM102 103.534V106.16H104V103.534H102ZM102.488 104.534H103V102.534H102.488V104.534ZM94 98.6233C97.4915 98.6233 100.452 100.82 101.547 103.872L103.429 103.196C102.053 99.3606 98.3465 96.6233 94 96.6233V98.6233ZM86.4531 103.872C87.5477 100.82 90.5085 98.6233 94 98.6233V96.6233C89.6535 96.6233 85.9465 99.3606 84.5705 103.196L86.4531 103.872ZM85 104.534H85.5118V102.534H85V104.534ZM86 106.16V103.534H84V106.16H86ZM85.006 105.16H85V107.16H85.006V105.16ZM86 106.488C86 106.391 86.0018 106.294 86.0053 106.197L84.0067 106.124C84.0022 106.245 84 106.366 84 106.488H86ZM94 114.353C89.5674 114.353 86 110.817 86 106.488H84C84 111.95 88.4915 116.353 94 116.353V114.353Z" fill="black" mask="url(#path-37-inside-10_1150_58797)"/>
<path d="M102.5 103.865C102.5 108.477 98.7016 112.229 94 112.229C89.2984 112.229 85.5 108.477 85.5 103.865C85.5 99.2521 89.2984 95.5 94 95.5C98.7016 95.5 102.5 99.2521 102.5 103.865Z" fill="white" stroke="black"/>
<mask id="path-40-inside-11_1150_58797" fill="white">
<path d="M101 104C101 102.871 100.727 101.758 100.203 100.757C99.6801 99.7559 98.9223 98.8964 97.9949 98.2519L97.4258 99.0706C98.2212 99.6234 98.871 100.36 99.3198 101.219C99.7686 102.077 100.003 103.031 100.003 104H101Z"/>
</mask>
<path d="M101 104C101 102.871 100.727 101.758 100.203 100.757C99.6801 99.7559 98.9223 98.8964 97.9949 98.2519L97.4258 99.0706C98.2212 99.6234 98.871 100.36 99.3198 101.219C99.7686 102.077 100.003 103.031 100.003 104H101Z" fill="white" stroke="black" stroke-width="2" mask="url(#path-40-inside-11_1150_58797)"/>
<mask id="path-41-inside-12_1150_58797" fill="white">
<path d="M100.246 107.159C100.513 106.633 100.712 106.074 100.838 105.497L99.8642 105.284C99.7559 105.779 99.5855 106.258 99.3569 106.71L100.246 107.159Z"/>
</mask>
<path d="M100.246 107.159C100.513 106.633 100.712 106.074 100.838 105.497L99.8642 105.284C99.7559 105.779 99.5855 106.258 99.3569 106.71L100.246 107.159Z" fill="white" stroke="black" stroke-width="2" mask="url(#path-41-inside-12_1150_58797)"/>
<path d="M94.3325 112.074V114.701" stroke="black"/>
<path d="M101.667 107.474V110.101" stroke="black"/>
<path d="M86.3323 107.474V110.101" stroke="black"/>
<path d="M100.333 109.446V112.073" stroke="black"/>
<path d="M87.6672 109.446V112.073" stroke="black"/>
<path d="M97.667 111.415V114.041" stroke="black"/>
<path d="M90.333 111.415V114.041" stroke="black"/>
<mask id="path-49-inside-13_1150_58797" fill="white">
<path fill-rule="evenodd" clip-rule="evenodd" d="M77 124.481C79.7614 124.481 82 122.243 82 119.481C82 119.42 81.9989 119.358 81.9967 119.297H82V117.815H81.7157C81.0295 115.873 79.1773 114.481 77 114.481C74.8227 114.481 72.9705 115.873 72.2843 117.815H72V119.297H72.0033C72.0011 119.358 72 119.42 72 119.481C72 122.243 74.2386 124.481 77 124.481Z"/>
</mask>
<path fill-rule="evenodd" clip-rule="evenodd" d="M77 124.481C79.7614 124.481 82 122.243 82 119.481C82 119.42 81.9989 119.358 81.9967 119.297H82V117.815H81.7157C81.0295 115.873 79.1773 114.481 77 114.481C74.8227 114.481 72.9705 115.873 72.2843 117.815H72V119.297H72.0033C72.0011 119.358 72 119.42 72 119.481C72 122.243 74.2386 124.481 77 124.481Z" fill="white"/>
<path d="M81.9967 119.297V118.297H80.9597L80.9973 119.333L81.9967 119.297ZM82 119.297V120.297H83V119.297H82ZM82 117.815H83V116.815H82V117.815ZM81.7157 117.815L80.7728 118.149L81.0084 118.815H81.7157V117.815ZM72.2843 117.815V118.815H72.9916L73.2272 118.149L72.2843 117.815ZM72 117.815V116.815H71V117.815H72ZM72 119.297H71V120.297H72V119.297ZM72.0033 119.297L73.0027 119.333L73.0403 118.297H72.0033V119.297ZM81 119.481C81 121.691 79.2091 123.481 77 123.481V125.481C80.3137 125.481 83 122.795 83 119.481H81ZM80.9973 119.333C80.9991 119.382 81 119.432 81 119.481H83C83 119.408 82.9987 119.334 82.996 119.261L80.9973 119.333ZM82 118.297H81.9967V120.297H82V118.297ZM81 117.815V119.297H83V117.815H81ZM81.7157 118.815H82V116.815H81.7157V118.815ZM77 115.481C78.7403 115.481 80.2234 116.593 80.7728 118.149L82.6586 117.482C81.8356 115.153 79.6143 113.481 77 113.481V115.481ZM73.2272 118.149C73.7766 116.593 75.2597 115.481 77 115.481V113.481C74.3857 113.481 72.1644 115.153 71.3414 117.482L73.2272 118.149ZM72 118.815H72.2843V116.815H72V118.815ZM73 119.297V117.815H71V119.297H73ZM72.0033 118.297H72V120.297H72.0033V118.297ZM73 119.481C73 119.432 73.0009 119.382 73.0027 119.333L71.004 119.261C71.0013 119.334 71 119.408 71 119.481H73ZM77 123.481C74.7909 123.481 73 121.691 73 119.481H71C71 122.795 73.6863 125.481 77 125.481V123.481Z" fill="black" mask="url(#path-49-inside-13_1150_58797)"/>
<circle cx="77" cy="118" r="4.5" fill="white" stroke="black"/>
<mask id="path-52-inside-14_1150_58797" fill="white">
<path d="M80 118C80 117.516 79.8829 117.039 79.6586 116.61C79.4343 116.181 79.1096 115.813 78.7121 115.537L78.1393 116.361C78.4038 116.545 78.6199 116.79 78.7691 117.075C78.9183 117.361 78.9963 117.678 78.9963 118H80Z"/>
</mask>
<path d="M80 118C80 117.516 79.8829 117.039 79.6586 116.61C79.4343 116.181 79.1096 115.813 78.7121 115.537L78.1393 116.361C78.4038 116.545 78.6199 116.79 78.7691 117.075C78.9183 117.361 78.9963 117.678 78.9963 118H80Z" fill="white" stroke="black" stroke-width="2" mask="url(#path-52-inside-14_1150_58797)"/>
<mask id="path-53-inside-15_1150_58797" fill="white">
<path d="M79.4539 119.726C79.6273 119.479 79.7625 119.208 79.855 118.921L78.8997 118.613C78.8382 118.804 78.7482 118.984 78.6329 119.148L79.4539 119.726Z"/>
</mask>
<path d="M79.4539 119.726C79.6273 119.479 79.7625 119.208 79.855 118.921L78.8997 118.613C78.8382 118.804 78.7482 118.984 78.6329 119.148L79.4539 119.726Z" fill="white" stroke="black" stroke-width="2" mask="url(#path-53-inside-15_1150_58797)"/>
<path d="M77.1851 122.629V123.629" stroke="black"/>
<path d="M81.2593 120.037V121.037" stroke="black"/>
<path d="M72.7405 120.037V121.037" stroke="black"/>
<path d="M80.5188 121.148V122.148" stroke="black"/>
<path d="M73.4814 121.148V122.148" stroke="black"/>
<path d="M79.0371 122.259V123.259" stroke="black"/>
<path d="M74.9629 122.259V123.259" stroke="black"/>
<rect x="15.5" y="72.5" width="97" height="9" rx="4.5" fill="white" stroke="black"/>
<rect x="19" y="76" width="90" height="2" fill="black"/>
<rect x="21.5" y="18.5" width="85" height="59" fill="white" stroke="black"/>
<g clip-path="url(#clip0_1150_58797)">
<path fill-rule="evenodd" clip-rule="evenodd" d="M33 27.5C33 26.1193 34.1193 25 35.5 25C36.8807 25 38 26.1193 38 27.5C38 28.8807 36.8807 30 35.5 30C34.1193 30 33 28.8807 33 27.5ZM37.5 50.5C36.6716 50.5 36 49.8284 36 49V43V42.5C36 42.2239 35.7761 42 35.5 42C35.2239 42 35 42.2239 35 42.5V43V49C35 49.8284 34.3284 50.5 33.5 50.5C32.6716 50.5 32 49.8284 32 49V43V40C30.8954 40 30 39.1046 30 38V33C30 31.8954 30.8954 31 32 31H39C40.1046 31 41 31.8954 41 33V38C41 39.1046 40.1046 40 39 40V43V49C39 49.8284 38.3284 50.5 37.5 50.5Z" fill="black"/>
<path fill-rule="evenodd" clip-rule="evenodd" d="M52 27.5C52 26.1193 53.1193 25 54.5 25C55.8807 25 57 26.1193 57 27.5C57 28.8807 55.8807 30 54.5 30C53.1193 30 52 28.8807 52 27.5ZM56.5 50.5C55.6716 50.5 55 49.8284 55 49V43V42.5C55 42.2239 54.7761 42 54.5 42C54.2239 42 54 42.2239 54 42.5V43V49C54 49.8284 53.3284 50.5 52.5 50.5C51.6716 50.5 51 49.8284 51 49V43V40C49.8954 40 49 39.1046 49 38V33C49 31.8954 49.8954 31 51 31H58C59.1046 31 60 31.8954 60 33V38C60 39.1046 59.1046 40 58 40V43V49C58 49.8284 57.3284 50.5 56.5 50.5Z" fill="black"/>
<path fill-rule="evenodd" clip-rule="evenodd" d="M71 27.5C71 26.1193 72.1193 25 73.5 25C74.8807 25 76 26.1193 76 27.5C76 28.8807 74.8807 30 73.5 30C72.1193 30 71 28.8807 71 27.5ZM75.5 50.5C74.6716 50.5 74 49.8284 74 49V43V42.5C74 42.2239 73.7761 42 73.5 42C73.2239 42 73 42.2239 73 42.5V43V49C73 49.8284 72.3284 50.5 71.5 50.5C70.6716 50.5 70 49.8284 70 49V43V40C68.8954 40 68 39.1046 68 38V33C68 31.8954 68.8954 31 70 31H77C78.1046 31 79 31.8954 79 33V38C79 39.1046 78.1046 40 77 40V43V49C77 49.8284 76.3284 50.5 75.5 50.5Z" fill="black"/>
<path fill-rule="evenodd" clip-rule="evenodd" d="M90 27.5C90 26.1193 91.1193 25 92.5 25C93.8807 25 95 26.1193 95 27.5C95 28.8807 93.8807 30 92.5 30C91.1193 30 90 28.8807 90 27.5ZM94.5 50.5C93.6716 50.5 93 49.8284 93 49V43V42.5C93 42.2239 92.7761 42 92.5 42C92.2239 42 92 42.2239 92 42.5V43V49C92 49.8284 91.3284 50.5 90.5 50.5C89.6716 50.5 89 49.8284 89 49V43V40C87.8954 40 87 39.1046 87 38V33C87 31.8954 87.8954 31 89 31H96C97.1046 31 98 31.8954 98 33V38C98 39.1046 97.1046 40 96 40V43V49C96 49.8284 95.3284 50.5 94.5 50.5Z" fill="black"/>
<path fill-rule="evenodd" clip-rule="evenodd" d="M33 58.5C33 57.1193 34.1193 56 35.5 56C36.8807 56 38 57.1193 38 58.5C38 59.8807 36.8807 61 35.5 61C34.1193 61 33 59.8807 33 58.5ZM37.5 81.5C36.6716 81.5 36 80.8284 36 80V74V73.5C36 73.2239 35.7761 73 35.5 73C35.2239 73 35 73.2239 35 73.5V74V80C35 80.8284 34.3284 81.5 33.5 81.5C32.6716 81.5 32 80.8284 32 80V74V71C30.8954 71 30 70.1046 30 69V64C30 62.8954 30.8954 62 32 62H39C40.1046 62 41 62.8954 41 64V69C41 70.1046 40.1046 71 39 71V74V80C39 80.8284 38.3284 81.5 37.5 81.5Z" fill="black"/>
<path fill-rule="evenodd" clip-rule="evenodd" d="M52 58.5C52 57.1193 53.1193 56 54.5 56C55.8807 56 57 57.1193 57 58.5C57 59.8807 55.8807 61 54.5 61C53.1193 61 52 59.8807 52 58.5ZM56.5 81.5C55.6716 81.5 55 80.8284 55 80V74V73.5C55 73.2239 54.7761 73 54.5 73C54.2239 73 54 73.2239 54 73.5V74V80C54 80.8284 53.3284 81.5 52.5 81.5C51.6716 81.5 51 80.8284 51 80V74V71C49.8954 71 49 70.1046 49 69V64C49 62.8954 49.8954 62 51 62H58C59.1046 62 60 62.8954 60 64V69C60 70.1046 59.1046 71 58 71V74V80C58 80.8284 57.3284 81.5 56.5 81.5Z" fill="black"/>
<path fill-rule="evenodd" clip-rule="evenodd" d="M71 58.5C71 57.1193 72.1193 56 73.5 56C74.8807 56 76 57.1193 76 58.5C76 59.8807 74.8807 61 73.5 61C72.1193 61 71 59.8807 71 58.5ZM75.5 81.5C74.6716 81.5 74 80.8284 74 80V74V73.5C74 73.2239 73.7761 73 73.5 73C73.2239 73 73 73.2239 73 73.5V74V80C73 80.8284 72.3284 81.5 71.5 81.5C70.6716 81.5 70 80.8284 70 80V74V71C68.8954 71 68 70.1046 68 69V64C68 62.8954 68.8954 62 70 62H77C78.1046 62 79 62.8954 79 64V69C79 70.1046 78.1046 71 77 71V74V80C77 80.8284 76.3284 81.5 75.5 81.5Z" fill="black"/>
<path fill-rule="evenodd" clip-rule="evenodd" d="M90 58.5C90 57.1193 91.1193 56 92.5 56C93.8807 56 95 57.1193 95 58.5C95 59.8807 93.8807 61 92.5 61C91.1193 61 90 59.8807 90 58.5ZM94.5 81.5C93.6716 81.5 93 80.8284 93 80V74V73.5C93 73.2239 92.7761 73 92.5 73C92.2239 73 92 73.2239 92 73.5V74V80C92 80.8284 91.3284 81.5 90.5 81.5C89.6716 81.5 89 80.8284 89 80V74V71C87.8954 71 87 70.1046 87 69V64C87 62.8954 87.8954 62 89 62H96C97.1046 62 98 62.8954 98 64V69C98 70.1046 97.1046 71 96 71V74V80C96 80.8284 95.3284 81.5 94.5 81.5Z" fill="black"/>
</g>
<defs>
<clipPath id="clip0_1150_58797">
<rect width="68" height="54" fill="white" transform="translate(30 24)"/>
</clipPath>
</defs>
</svg>
