<svg width="128" height="128" viewBox="0 0 128 128" fill="none" xmlns="http://www.w3.org/2000/svg">
<path d="M123.503 52.6111V103.222H82.3142L83.391 86.5322L83.4271 85.9726L82.867 86.0006L72.2809 86.5299V70.3889V70.0799L72.0045 69.9417L66.8728 67.3758L72.2394 55.0327L72.2809 54.9373V54.8333V52.6111C72.2809 38.4665 83.7474 27 97.892 27C112.037 27 123.503 38.4665 123.503 52.6111Z" fill="white" stroke="black"/>
<mask id="path-2-inside-1_1170_64930" fill="white">
<path fill-rule="evenodd" clip-rule="evenodd" d="M106.226 63.5579C111.748 63.5579 116.226 59.1481 116.226 53.7083C116.226 53.5863 116.223 53.4649 116.219 53.344H116.226V50.4256H115.657C114.284 46.5998 110.58 43.8586 106.226 43.8586C101.871 43.8586 98.167 46.5998 96.7944 50.4256H96.2256V53.344H96.2323C96.2278 53.4649 96.2256 53.5863 96.2256 53.7083C96.2256 59.1481 100.703 63.5579 106.226 63.5579Z"/>
</mask>
<path fill-rule="evenodd" clip-rule="evenodd" d="M106.226 63.5579C111.748 63.5579 116.226 59.1481 116.226 53.7083C116.226 53.5863 116.223 53.4649 116.219 53.344H116.226V50.4256H115.657C114.284 46.5998 110.58 43.8586 106.226 43.8586C101.871 43.8586 98.167 46.5998 96.7944 50.4256H96.2256V53.344H96.2323C96.2278 53.4649 96.2256 53.5863 96.2256 53.7083C96.2256 59.1481 100.703 63.5579 106.226 63.5579Z" fill="white"/>
<path d="M116.219 53.344V52.344H115.181L115.22 53.3809L116.219 53.344ZM116.226 53.344V54.344H117.226V53.344H116.226ZM116.226 50.4256H117.226V49.4256H116.226V50.4256ZM115.657 50.4256L114.716 50.7633L114.953 51.4256H115.657V50.4256ZM96.7944 50.4256V51.4256H97.498L97.7357 50.7633L96.7944 50.4256ZM96.2256 50.4256V49.4256H95.2256V50.4256H96.2256ZM96.2256 53.344H95.2256V54.344H96.2256V53.344ZM96.2323 53.344L97.2316 53.3809L97.2699 52.344H96.2323V53.344ZM115.226 53.7083C115.226 58.5815 111.21 62.5579 106.226 62.5579V64.5579C112.286 64.5579 117.226 59.7146 117.226 53.7083H115.226ZM115.22 53.3809C115.224 53.4895 115.226 53.5986 115.226 53.7083H117.226C117.226 53.574 117.223 53.4403 117.218 53.3072L115.22 53.3809ZM116.226 52.344H116.219V54.344H116.226V52.344ZM115.226 50.4256V53.344H117.226V50.4256H115.226ZM115.657 51.4256H116.226V49.4256H115.657V51.4256ZM106.226 44.8586C110.152 44.8586 113.484 47.3296 114.716 50.7633L116.598 50.0879C115.085 45.8699 111.007 42.8586 106.226 42.8586V44.8586ZM97.7357 50.7633C98.9676 47.3296 102.299 44.8586 106.226 44.8586V42.8586C101.444 42.8586 97.3665 45.8699 95.8531 50.0879L97.7357 50.7633ZM96.2256 51.4256H96.7944V49.4256H96.2256V51.4256ZM97.2256 53.344V50.4256H95.2256V53.344H97.2256ZM96.2323 52.344H96.2256V54.344H96.2323V52.344ZM97.2256 53.7083C97.2256 53.5986 97.2276 53.4895 97.2316 53.3809L95.233 53.3072C95.2281 53.4403 95.2256 53.574 95.2256 53.7083H97.2256ZM106.226 62.5579C101.241 62.5579 97.2256 58.5815 97.2256 53.7083H95.2256C95.2256 59.7146 100.165 64.5579 106.226 64.5579V62.5579Z" fill="black" mask="url(#path-2-inside-1_1170_64930)"/>
<path d="M115.725 50.794C115.725 55.9505 111.479 60.1436 106.225 60.1436C100.971 60.1436 96.7253 55.9505 96.7253 50.794C96.7253 45.6374 100.971 41.4443 106.225 41.4443C111.479 41.4443 115.725 45.6374 115.725 50.794Z" fill="white" stroke="black"/>
<mask id="path-5-inside-2_1170_64930" fill="white">
<path d="M114.003 50.944C114.003 49.6891 113.699 48.4527 113.118 47.3405C112.536 46.2284 111.695 45.2734 110.664 44.5572L110.032 45.4669C110.916 46.0811 111.638 46.9001 112.136 47.8538C112.635 48.8076 112.895 49.8678 112.895 50.944H114.003Z"/>
</mask>
<path d="M114.003 50.944C114.003 49.6891 113.699 48.4527 113.118 47.3405C112.536 46.2284 111.695 45.2734 110.664 44.5572L110.032 45.4669C110.916 46.0811 111.638 46.9001 112.136 47.8538C112.635 48.8076 112.895 49.8678 112.895 50.944H114.003Z" fill="white" stroke="black" stroke-width="2" mask="url(#path-5-inside-2_1170_64930)"/>
<mask id="path-6-inside-3_1170_64930" fill="white">
<path d="M113.166 54.4545C113.462 53.8691 113.683 53.2486 113.823 52.6078L112.741 52.3709C112.621 52.9204 112.431 53.4526 112.177 53.9546L113.166 54.4545Z"/>
</mask>
<path d="M113.166 54.4545C113.462 53.8691 113.683 53.2486 113.823 52.6078L112.741 52.3709C112.621 52.9204 112.431 53.4526 112.177 53.9546L113.166 54.4545Z" fill="white" stroke="black" stroke-width="2" mask="url(#path-6-inside-3_1170_64930)"/>
<path d="M106.595 59.9155V62.8339" stroke="black"/>
<path d="M114.744 54.8049V57.7233" stroke="black"/>
<path d="M97.7061 54.8049V57.7233" stroke="black"/>
<path d="M113.262 56.9958V59.9143" stroke="black"/>
<path d="M99.1887 56.9958V59.9143" stroke="black"/>
<path d="M110.3 59.1829V62.1013" stroke="black"/>
<path d="M102.151 59.1829V62.1013" stroke="black"/>
<mask id="path-14-inside-4_1170_64930" fill="white">
<path fill-rule="evenodd" clip-rule="evenodd" d="M97.3361 54.6699C102.859 54.6699 107.336 50.2601 107.336 44.8203C107.336 44.6983 107.334 44.5769 107.329 44.4559H107.336V41.5375H106.767C105.395 37.7118 101.69 34.9707 97.3361 34.9707C92.9818 34.9707 89.2776 37.7118 87.9049 41.5375H87.3359V44.4559H87.3428C87.3383 44.5769 87.3361 44.6983 87.3361 44.8203C87.3361 50.2601 91.8132 54.6699 97.3361 54.6699Z"/>
</mask>
<path fill-rule="evenodd" clip-rule="evenodd" d="M97.3361 54.6699C102.859 54.6699 107.336 50.2601 107.336 44.8203C107.336 44.6983 107.334 44.5769 107.329 44.4559H107.336V41.5375H106.767C105.395 37.7118 101.69 34.9707 97.3361 34.9707C92.9818 34.9707 89.2776 37.7118 87.9049 41.5375H87.3359V44.4559H87.3428C87.3383 44.5769 87.3361 44.6983 87.3361 44.8203C87.3361 50.2601 91.8132 54.6699 97.3361 54.6699Z" fill="white"/>
<path d="M107.329 44.4559V43.4559H106.292L106.33 44.4929L107.329 44.4559ZM107.336 44.4559V45.4559H108.336V44.4559H107.336ZM107.336 41.5375H108.336V40.5375H107.336V41.5375ZM106.767 41.5375L105.826 41.8753L106.064 42.5375H106.767V41.5375ZM87.9049 41.5375V42.5375H88.6086L88.8462 41.8753L87.9049 41.5375ZM87.3359 41.5375V40.5375H86.3359V41.5375H87.3359ZM87.3359 44.4559H86.3359V45.4559H87.3359V44.4559ZM87.3428 44.4559L88.3421 44.4928L88.3804 43.4559H87.3428V44.4559ZM106.336 44.8203C106.336 49.6936 102.321 53.6699 97.3361 53.6699V55.6699C103.397 55.6699 108.336 50.8266 108.336 44.8203H106.336ZM106.33 44.4929C106.334 44.6015 106.336 44.7106 106.336 44.8203H108.336C108.336 44.686 108.334 44.5523 108.329 44.419L106.33 44.4929ZM107.336 43.4559H107.329V45.4559H107.336V43.4559ZM106.336 41.5375V44.4559H108.336V41.5375H106.336ZM106.767 42.5375H107.336V40.5375H106.767V42.5375ZM97.3361 35.9707C101.263 35.9707 104.594 38.4416 105.826 41.8753L107.708 41.1998C106.195 36.9819 102.118 33.9707 97.3361 33.9707V35.9707ZM88.8462 41.8753C90.0781 38.4416 93.4093 35.9707 97.3361 35.9707V33.9707C92.5544 33.9707 88.4771 36.9819 86.9637 41.1998L88.8462 41.8753ZM87.3359 42.5375H87.9049V40.5375H87.3359V42.5375ZM88.3359 44.4559V41.5375H86.3359V44.4559H88.3359ZM87.3428 43.4559H87.3359V45.4559H87.3428V43.4559ZM88.3361 44.8203C88.3361 44.7106 88.3381 44.6015 88.3421 44.4928L86.3435 44.4191C86.3385 44.5523 86.3361 44.686 86.3361 44.8203H88.3361ZM97.3361 53.6699C92.3512 53.6699 88.3361 49.6936 88.3361 44.8203H86.3361C86.3361 50.8266 91.2753 55.6699 97.3361 55.6699V53.6699Z" fill="black" mask="url(#path-14-inside-4_1170_64930)"/>
<path d="M106.836 41.9055C106.836 47.0621 102.59 51.2552 97.3362 51.2552C92.0823 51.2552 87.8362 47.0621 87.8362 41.9055C87.8362 36.749 92.0823 32.5559 97.3362 32.5559C102.59 32.5559 106.836 36.749 106.836 41.9055Z" fill="white" stroke="black"/>
<mask id="path-17-inside-5_1170_64930" fill="white">
<path d="M105.114 42.0559C105.114 40.8009 104.81 39.5645 104.229 38.4524C103.647 37.3402 102.805 36.3852 101.775 35.669L101.142 36.5788C102.026 37.1929 102.748 38.0119 103.247 38.9656C103.745 39.9194 104.006 40.9796 104.006 42.0559H105.114Z"/>
</mask>
<path d="M105.114 42.0559C105.114 40.8009 104.81 39.5645 104.229 38.4524C103.647 37.3402 102.805 36.3852 101.775 35.669L101.142 36.5788C102.026 37.1929 102.748 38.0119 103.247 38.9656C103.745 39.9194 104.006 40.9796 104.006 42.0559H105.114Z" fill="white" stroke="black" stroke-width="2" mask="url(#path-17-inside-5_1170_64930)"/>
<mask id="path-18-inside-6_1170_64930" fill="white">
<path d="M104.276 45.5664C104.572 44.9809 104.793 44.3604 104.934 43.7196L103.852 43.4827C103.731 44.0323 103.542 44.5644 103.288 45.0665L104.276 45.5664Z"/>
</mask>
<path d="M104.276 45.5664C104.572 44.9809 104.793 44.3604 104.934 43.7196L103.852 43.4827C103.731 44.0323 103.542 44.5644 103.288 45.0665L104.276 45.5664Z" fill="white" stroke="black" stroke-width="2" mask="url(#path-18-inside-6_1170_64930)"/>
<path d="M97.7058 51.0271V53.9455" stroke="black"/>
<path d="M105.855 45.9167V48.8352" stroke="black"/>
<path d="M88.8169 45.9167V48.8352" stroke="black"/>
<path d="M104.373 48.1077V51.0261" stroke="black"/>
<path d="M90.2996 48.1077V51.0261" stroke="black"/>
<path d="M101.411 50.2947V53.2131" stroke="black"/>
<path d="M93.2615 50.2947V53.2131" stroke="black"/>
<mask id="path-26-inside-7_1170_64930" fill="white">
<path fill-rule="evenodd" clip-rule="evenodd" d="M86.2255 63.7017C89.2937 63.7017 91.781 61.2144 91.781 58.1461C91.781 58.0772 91.7798 58.0086 91.7773 57.9404H91.7811V56.2943H91.4649C90.7022 54.1365 88.6444 52.5906 86.2255 52.5906C83.8066 52.5906 81.7487 54.1365 80.986 56.2943H80.6699V57.9404H80.6737C80.6712 58.0086 80.6699 58.0772 80.6699 58.1461C80.6699 61.2144 83.1572 63.7017 86.2255 63.7017Z"/>
</mask>
<path fill-rule="evenodd" clip-rule="evenodd" d="M86.2255 63.7017C89.2937 63.7017 91.781 61.2144 91.781 58.1461C91.781 58.0772 91.7798 58.0086 91.7773 57.9404H91.7811V56.2943H91.4649C90.7022 54.1365 88.6444 52.5906 86.2255 52.5906C83.8066 52.5906 81.7487 54.1365 80.986 56.2943H80.6699V57.9404H80.6737C80.6712 58.0086 80.6699 58.0772 80.6699 58.1461C80.6699 61.2144 83.1572 63.7017 86.2255 63.7017Z" fill="white"/>
<path d="M91.7773 57.9404V56.9404H90.7402L90.778 57.9767L91.7773 57.9404ZM91.7811 57.9404V58.9404H92.7811V57.9404H91.7811ZM91.7811 56.2943H92.7811V55.2943H91.7811V56.2943ZM91.4649 56.2943L90.5221 56.6275L90.7577 57.2943H91.4649V56.2943ZM80.986 56.2943V57.2943H81.6932L81.9289 56.6275L80.986 56.2943ZM80.6699 56.2943V55.2943H79.6699V56.2943H80.6699ZM80.6699 57.9404H79.6699V58.9404H80.6699V57.9404ZM80.6737 57.9404L81.673 57.9767L81.7107 56.9404H80.6737V57.9404ZM90.781 58.1461C90.781 60.6621 88.7414 62.7017 86.2255 62.7017V64.7017C89.846 64.7017 92.781 61.7667 92.781 58.1461H90.781ZM90.778 57.9767C90.78 58.0329 90.781 58.0894 90.781 58.1461H92.781C92.781 58.0651 92.7796 57.9844 92.7766 57.904L90.778 57.9767ZM91.7811 56.9404H91.7773V58.9404H91.7811V56.9404ZM90.7811 56.2943V57.9404H92.7811V56.2943H90.7811ZM91.4649 57.2943H91.7811V55.2943H91.4649V57.2943ZM86.2255 53.5906C88.2074 53.5906 89.8962 54.8568 90.5221 56.6275L92.4077 55.961C91.5083 53.4162 89.0814 51.5906 86.2255 51.5906V53.5906ZM81.9289 56.6275C82.5547 54.8568 84.2435 53.5906 86.2255 53.5906V51.5906C83.3696 51.5906 80.9427 53.4162 80.0432 55.961L81.9289 56.6275ZM80.6699 57.2943H80.986V55.2943H80.6699V57.2943ZM81.6699 57.9404V56.2943H79.6699V57.9404H81.6699ZM80.6737 56.9404H80.6699V58.9404H80.6737V56.9404ZM81.6699 58.1461C81.6699 58.0894 81.671 58.0329 81.673 57.9767L79.6743 57.904C79.6714 57.9844 79.6699 58.0651 79.6699 58.1461H81.6699ZM86.2255 62.7017C83.7095 62.7017 81.6699 60.6621 81.6699 58.1461H79.6699C79.6699 61.7667 82.6049 64.7017 86.2255 64.7017V62.7017Z" fill="black" mask="url(#path-26-inside-7_1170_64930)"/>
<path d="M91.281 56.4999C91.281 59.292 89.0176 61.5554 86.2255 61.5554C83.4334 61.5554 81.1699 59.292 81.1699 56.4999C81.1699 53.7078 83.4334 51.4443 86.2255 51.4443C89.0176 51.4443 91.281 53.7078 91.281 56.4999Z" fill="white" stroke="black"/>
<mask id="path-29-inside-8_1170_64930" fill="white">
<path d="M89.5588 56.4998C89.5588 55.962 89.4286 55.4321 89.1794 54.9555C88.9302 54.4788 88.5694 54.0696 88.1277 53.7626L87.4913 54.6784C87.7852 54.8827 88.0253 55.155 88.1911 55.4722C88.3569 55.7893 88.4435 56.1419 88.4435 56.4998H89.5588Z"/>
</mask>
<path d="M89.5588 56.4998C89.5588 55.962 89.4286 55.4321 89.1794 54.9555C88.9302 54.4788 88.5694 54.0696 88.1277 53.7626L87.4913 54.6784C87.7852 54.8827 88.0253 55.155 88.1911 55.4722C88.3569 55.7893 88.4435 56.1419 88.4435 56.4998H89.5588Z" fill="white" stroke="black" stroke-width="2" mask="url(#path-29-inside-8_1170_64930)"/>
<mask id="path-30-inside-9_1170_64930" fill="white">
<path d="M88.952 58.4173C89.1446 58.1435 89.2948 57.8422 89.3977 57.5236L88.3362 57.181C88.2678 57.393 88.1678 57.5935 88.0397 57.7757L88.952 58.4173Z"/>
</mask>
<path d="M88.952 58.4173C89.1446 58.1435 89.2948 57.8422 89.3977 57.5236L88.3362 57.181C88.2678 57.393 88.1678 57.5935 88.0397 57.7757L88.952 58.4173Z" fill="white" stroke="black" stroke-width="2" mask="url(#path-30-inside-9_1170_64930)"/>
<path d="M86.4309 61.6428V62.7539" stroke="black"/>
<path d="M90.9578 58.7632V59.8743" stroke="black"/>
<path d="M81.4927 58.7632V59.8743" stroke="black"/>
<path d="M90.1348 59.9983V61.1094" stroke="black"/>
<path d="M82.3159 59.9983V61.1094" stroke="black"/>
<path d="M88.4888 61.2317V62.3428" stroke="black"/>
<path d="M83.9617 61.2317V62.3428" stroke="black"/>
<path d="M4.50348 52.6111V103.222H45.6924L44.6156 86.5322L44.5795 85.9726L45.1396 86.0006L55.7257 86.5299V70.3889V70.0799L56.0021 69.9417L61.1337 67.3758L55.7672 55.0327L55.7257 54.9373V54.8333V52.6111C55.7257 38.4665 44.2592 27 30.1146 27C15.97 27 4.50348 38.4665 4.50348 52.6111Z" fill="white" stroke="black"/>
<path fill-rule="evenodd" clip-rule="evenodd" d="M30.0006 57.0204C31.0112 58.0701 32.4308 58.7231 34.003 58.7231C36.1038 58.7231 37.9322 57.557 38.8764 55.8368C39.7544 56.2624 40.7397 56.5011 41.7808 56.5011C45.4627 56.5011 48.4475 53.5163 48.4475 49.8344C48.4475 46.9289 46.5887 44.4574 43.9955 43.5444C44.0006 43.4196 44.0033 43.2942 44.0033 43.1682C44.0033 38.259 40.0236 34.2793 35.1144 34.2793C33.5121 34.2793 32.0089 34.7032 30.7108 35.445C29.7 34.0643 28.0673 33.1677 26.2251 33.1677C23.8816 33.1677 21.8771 34.6187 21.0608 36.6713C20.578 36.5601 20.0752 36.5014 19.5587 36.5014C15.8768 36.5014 12.892 39.4862 12.892 43.1681C12.892 44.5691 13.3242 45.8693 14.0626 46.9424C13.3164 48.2939 12.8918 49.8477 12.8918 51.5006C12.8918 56.7167 17.1202 60.9451 22.3362 60.9451C25.4915 60.9451 28.2855 59.3977 30.0006 57.0204Z" fill="black"/>
<mask id="path-40-inside-10_1170_64930" fill="white">
<path d="M36.4308 46.9578C37.3762 47.3274 38.2248 47.9081 38.9118 48.6555C39.5988 49.4029 40.106 50.2973 40.3947 51.2705C40.6835 52.2437 40.7462 53.27 40.5781 54.2711C40.4099 55.2723 40.0154 56.2218 39.4245 57.0473L38.5191 56.3992C39.0113 55.7116 39.3399 54.9206 39.48 54.0867C39.6201 53.2528 39.5678 52.3979 39.3273 51.5872C39.0867 50.7766 38.6642 50.0315 38.092 49.409C37.5198 48.7864 36.8129 48.3027 36.0254 47.9949L36.4308 46.9578Z"/>
</mask>
<path d="M36.4308 46.9578C37.3762 47.3274 38.2248 47.9081 38.9118 48.6555C39.5988 49.4029 40.106 50.2973 40.3947 51.2705C40.6835 52.2437 40.7462 53.27 40.5781 54.2711C40.4099 55.2723 40.0154 56.2218 39.4245 57.0473L38.5191 56.3992C39.0113 55.7116 39.3399 54.9206 39.48 54.0867C39.6201 53.2528 39.5678 52.3979 39.3273 51.5872C39.0867 50.7766 38.6642 50.0315 38.092 49.409C37.5198 48.7864 36.8129 48.3027 36.0254 47.9949L36.4308 46.9578Z" stroke="white" stroke-width="2" mask="url(#path-40-inside-10_1170_64930)"/>
<mask id="path-41-inside-11_1170_64930" fill="white">
<path d="M27.1765 49.2724C27.027 49.7765 26.7769 50.245 26.4413 50.6496C26.1057 51.0543 25.6915 51.3867 25.2238 51.6268C24.7561 51.8668 24.2445 52.0095 23.7201 52.0463C23.1957 52.0831 22.6692 52.0132 22.1726 51.8407C21.6759 51.6683 21.2194 51.397 20.8306 51.0431C20.4417 50.6893 20.1287 50.2603 19.9104 49.782C19.692 49.3038 19.5729 48.7862 19.5603 48.2607C19.5476 47.7351 19.6416 47.2124 19.8367 46.7242L20.9201 47.157C20.7835 47.4988 20.7177 47.8646 20.7266 48.2325C20.7355 48.6005 20.8188 48.9627 20.9717 49.2975C21.1245 49.6323 21.3436 49.9326 21.6158 50.1803C21.888 50.428 22.2075 50.6179 22.5552 50.7386C22.9029 50.8593 23.2714 50.9083 23.6385 50.8825C24.0056 50.8568 24.3637 50.7569 24.6911 50.5888C25.0185 50.4208 25.3084 50.1881 25.5433 49.9048C25.7783 49.6216 25.9533 49.2936 26.0579 48.9408L27.1765 49.2724Z"/>
</mask>
<path d="M27.1765 49.2724C27.027 49.7765 26.7769 50.245 26.4413 50.6496C26.1057 51.0543 25.6915 51.3867 25.2238 51.6268C24.7561 51.8668 24.2445 52.0095 23.7201 52.0463C23.1957 52.0831 22.6692 52.0132 22.1726 51.8407C21.6759 51.6683 21.2194 51.397 20.8306 51.0431C20.4417 50.6893 20.1287 50.2603 19.9104 49.782C19.692 49.3038 19.5729 48.7862 19.5603 48.2607C19.5476 47.7351 19.6416 47.2124 19.8367 46.7242L20.9201 47.157C20.7835 47.4988 20.7177 47.8646 20.7266 48.2325C20.7355 48.6005 20.8188 48.9627 20.9717 49.2975C21.1245 49.6323 21.3436 49.9326 21.6158 50.1803C21.888 50.428 22.2075 50.6179 22.5552 50.7386C22.9029 50.8593 23.2714 50.9083 23.6385 50.8825C24.0056 50.8568 24.3637 50.7569 24.6911 50.5888C25.0185 50.4208 25.3084 50.1881 25.5433 49.9048C25.7783 49.6216 25.9533 49.2936 26.0579 48.9408L27.1765 49.2724Z" stroke="white" stroke-width="2" mask="url(#path-41-inside-11_1170_64930)"/>
<mask id="path-42-inside-12_1170_64930" fill="white">
<path d="M21.5116 34.0085C22.3382 33.1819 23.3676 32.5872 24.4966 32.284C25.6256 31.9809 26.8144 31.9799 27.9439 32.2811C29.0734 32.5824 30.1038 33.1754 30.9318 34.0006C31.7597 34.8258 32.3562 35.8542 32.6613 36.9827C32.9664 38.1111 32.9694 39.3 32.67 40.43C32.3706 41.5599 31.7794 42.5913 30.9556 43.4207C30.1318 44.2501 29.1044 44.8483 27.9764 45.1552C26.8485 45.4622 25.6596 45.4672 24.5291 45.1698L24.8124 44.0935C25.7541 44.3413 26.7445 44.3371 27.6841 44.0814C28.6238 43.8256 29.4797 43.3273 30.166 42.6364C30.8522 41.9455 31.3448 41.0863 31.5942 40.1449C31.8436 39.2036 31.8411 38.2132 31.5869 37.2731C31.3328 36.333 30.8359 35.4763 30.1461 34.7889C29.4564 34.1014 28.598 33.6075 27.6571 33.3565C26.7161 33.1055 25.7257 33.1063 24.7852 33.3589C23.8447 33.6115 22.9872 34.1069 22.2986 34.7955L21.5116 34.0085Z"/>
</mask>
<path d="M21.5116 34.0085C22.3382 33.1819 23.3676 32.5872 24.4966 32.284C25.6256 31.9809 26.8144 31.9799 27.9439 32.2811C29.0734 32.5824 30.1038 33.1754 30.9318 34.0006C31.7597 34.8258 32.3562 35.8542 32.6613 36.9827C32.9664 38.1111 32.9694 39.3 32.67 40.43C32.3706 41.5599 31.7794 42.5913 30.9556 43.4207C30.1318 44.2501 29.1044 44.8483 27.9764 45.1552C26.8485 45.4622 25.6596 45.4672 24.5291 45.1698L24.8124 44.0935C25.7541 44.3413 26.7445 44.3371 27.6841 44.0814C28.6238 43.8256 29.4797 43.3273 30.166 42.6364C30.8522 41.9455 31.3448 41.0863 31.5942 40.1449C31.8436 39.2036 31.8411 38.2132 31.5869 37.2731C31.3328 36.333 30.8359 35.4763 30.1461 34.7889C29.4564 34.1014 28.598 33.6075 27.6571 33.3565C26.7161 33.1055 25.7257 33.1063 24.7852 33.3589C23.8447 33.6115 22.9872 34.1069 22.2986 34.7955L21.5116 34.0085Z" stroke="white" stroke-width="2" mask="url(#path-42-inside-12_1170_64930)"/>
</svg>
