<svg width="88" height="30" viewBox="0 0 88 30" fill="none" xmlns="http://www.w3.org/2000/svg">
<g clip-path="url(#clip0_1250_125203)">
<path fill-rule="evenodd" clip-rule="evenodd" d="M21 6H24V12H33V24H24H21V6ZM24 21H30V15H24V21ZM75 24V27V30H72H66V27H72V24H63V12H75V24ZM51 12H54H60V15H54V24H51V12ZM48 12H36V24H48V12ZM45 15H39V21H45V15ZM72 15H66V21H72V15ZM0 9H3V12H0V9ZM9 9H6V12H9V9ZM15 9H12V12H15V9ZM15 15H12V18H15V15ZM12 21H15V24H12V21ZM9 15H6V18H9V15ZM6 21H9V24H6V21ZM3 15H0V18H3V15ZM0 21H3V24H0V21Z" fill="#111827"/>
<path d="M78.486 3.385C78.003 3.385 77.8245 3.154 77.8245 2.8495V2.6815C77.8245 2.377 78.003 2.146 78.486 2.146C78.969 2.146 79.1475 2.377 79.1475 2.6815V2.8495C79.1475 3.154 78.969 3.385 78.486 3.385ZM76.113 10V9.286H78.066V5.296H76.113V4.582H78.906V9.286H80.733V10H76.113ZM85.7584 10V9.118H85.7164C85.3699 9.7795 84.8029 10.126 84.0469 10.126C82.7239 10.126 81.9259 9.0655 81.9259 7.291C81.9259 5.5165 82.7239 4.456 84.0469 4.456C84.8029 4.456 85.3699 4.8025 85.7164 5.464H85.7584V2.23H86.5984V10H85.7584ZM84.3724 9.3805C85.1179 9.3805 85.7584 8.992 85.7584 8.2675V6.3145C85.7584 5.59 85.1179 5.2015 84.3724 5.2015C83.3959 5.2015 82.8289 5.8525 82.8289 6.829V7.753C82.8289 8.7295 83.3959 9.3805 84.3724 9.3805Z" fill="#111827"/>
</g>
<defs>
<clipPath id="clip0_1250_125203">
<rect width="88" height="30" fill="white"/>
</clipPath>
</defs>
</svg>
